<svg width="117" height="117" viewBox="0 0 117 117" fill="none" xmlns="http://www.w3.org/2000/svg">
<path d="M38.8477 50.502V27.8766V7.08398H75.4102V18.119V48.2168H42.2754C40.7832 48.2168 39.5172 49.172 39.0465 50.502H38.8477Z" fill="#F7D794"/>
<path d="M41.0186 30.0761V9.28345H75.4102V7.08398H38.8477V27.8766V50.502H39.0465C39.3771 49.568 40.1006 48.8205 41.0186 48.4572V30.0761Z" fill="#E2BF7F"/>
<path d="M75.4102 50.502V55.0723H42.2754C40.3833 55.0723 38.8477 53.5366 38.8477 51.6445C38.8477 51.2423 38.9208 50.8607 39.0465 50.502C39.5172 49.172 40.7832 48.2168 42.2754 48.2168H75.4102V50.502Z" fill="#E2D3B5"/>
<path d="M39.8474 53.5012C39.8474 53.099 39.9205 52.7174 40.0462 52.3586C40.517 51.0287 41.7829 50.0735 43.2751 50.0735H75.4102V48.2168H42.2754C40.7832 48.2168 39.5172 49.172 39.0465 50.502C38.9208 50.8607 38.8477 51.2423 38.8477 51.6445C38.8477 52.6166 39.2549 53.4925 39.9057 54.1166C39.8694 53.9167 39.8474 53.7117 39.8474 53.5012Z" fill="#CEB995"/>
<path d="M42.2754 55.0722H75.4102V50.5018V48.2167V18.1189C83.6619 21.6883 89.4364 29.9217 89.4364 39.5125C89.4364 40.8379 89.3222 42.1382 89.1097 43.4019C89.2191 43.3996 89.3268 43.395 89.4364 43.395C100.117 43.395 108.773 52.0832 108.773 62.8006C108.773 73.3098 100.883 82.1625 90.4922 82.494H79.9805H79.007H37.9359H21.9375C13.8161 80.1952 8.22656 71.6898 8.22656 62.8006C8.22656 53.4086 14.8741 45.5751 23.7062 43.7812C23.7016 43.6532 23.6948 43.523 23.6948 43.395C23.6948 34.9262 30.452 28.0456 38.8477 27.8765V50.5018H39.0465C38.9208 50.8606 38.8477 51.2422 38.8477 51.6444C38.8477 53.5365 40.3833 55.0722 42.2754 55.0722Z" fill="#E0F8FF"/>
<path d="M10.2832 65.2002C10.2832 55.8082 16.9307 47.9747 25.7629 46.1808C25.7583 46.0528 25.7514 45.9226 25.7514 45.7946C25.7514 38.0301 31.4326 31.6049 38.8477 30.4589V27.8767C30.452 28.0458 23.6948 34.9264 23.6948 43.3952C23.6948 43.5232 23.7016 43.6534 23.7062 43.7814C14.8741 45.5752 8.22656 53.4088 8.22656 62.8008C8.22656 68.5731 10.5853 74.1817 14.4623 78.0359C11.8248 74.424 10.2832 69.8655 10.2832 65.2002Z" fill="#CCE5E4"/>
<path d="M47.9883 104.203H15.9961C15.3652 104.203 14.8535 103.692 14.8535 103.061C14.8535 102.429 15.3652 101.918 15.9961 101.918H46.8457V93.7699L41.7665 97.1558C41.2414 97.5056 40.532 97.364 40.182 96.8388C39.8319 96.3137 39.9738 95.6044 40.4989 95.2543L47.3544 90.684C47.7047 90.4504 48.1556 90.4285 48.5273 90.6273C48.8987 90.8261 49.1309 91.2132 49.1309 91.6346V103.06C49.1309 103.692 48.6192 104.203 47.9883 104.203Z" fill="black"/>
<path d="M54.8428 97.3478C54.6251 97.3478 54.4048 97.2856 54.2101 97.1556L47.3546 92.5853C46.8295 92.2354 46.6878 91.5259 47.0376 91.0008C47.3875 90.4754 48.097 90.3337 48.6222 90.6838L55.4776 95.2541C56.0028 95.604 56.1445 96.3135 55.7946 96.8386C55.5743 97.1691 55.2119 97.3478 54.8428 97.3478Z" fill="black"/>
<path d="M107.402 104.203H75.4102C74.779 104.203 74.2676 103.692 74.2676 103.061V91.6348C74.2676 91.2135 74.4995 90.8264 74.8711 90.6276C75.2424 90.429 75.6931 90.4504 76.0441 90.6842L82.8995 95.2545C83.4247 95.6044 83.5666 96.3139 83.2165 96.8391C82.8666 97.3642 82.1571 97.5061 81.6319 97.156L76.5527 93.7699V101.918H107.402C108.034 101.918 108.545 102.429 108.545 103.061C108.545 103.692 108.034 104.203 107.402 104.203Z" fill="black"/>
<path d="M68.5558 97.348C68.1865 97.348 67.8243 97.1693 67.604 96.8388C67.2539 96.3137 67.3959 95.6044 67.921 95.2543L74.7765 90.684C75.3016 90.3339 76.0107 90.4758 76.361 91.0009C76.7113 91.5261 76.5692 92.2354 76.044 92.5855L69.1886 97.1558C68.9936 97.2858 68.7736 97.348 68.5558 97.348Z" fill="black"/>
<path d="M61.6992 111.059C61.0681 111.059 60.5566 110.547 60.5566 109.916V89.3496C60.5566 88.7184 61.0681 88.207 61.6992 88.207C62.3304 88.207 62.8418 88.7184 62.8418 89.3496V109.916C62.8418 110.547 62.3304 111.059 61.6992 111.059Z" fill="black"/>
<path d="M90.4922 83.6367H21.9375C21.8324 83.6367 21.7277 83.6223 21.6263 83.5935C13.2 81.2085 7.08398 72.4637 7.08398 62.8006C7.08398 53.3776 13.538 45.1432 22.5602 42.8704C22.6891 38.674 24.3627 34.7334 27.306 31.7246C30.3677 28.5946 34.4586 26.8222 38.8246 26.7345C39.4544 26.7294 39.9772 27.223 39.99 27.8537C40.0028 28.4844 39.5014 29.0064 38.8707 29.0192C31.1327 29.175 24.8374 35.624 24.8374 43.3953C24.8374 43.4762 24.841 43.5585 24.8442 43.6401L24.8481 43.7406C24.868 44.2991 24.4813 44.79 23.9336 44.9012C15.4945 46.6151 9.36914 54.1431 9.36914 62.8006C9.36914 71.404 14.7137 79.1774 22.0991 81.3515H90.4737C100.096 81.035 107.631 72.8901 107.631 62.8006C107.631 52.7304 99.4687 44.5377 89.4364 44.5377C89.3741 44.5377 89.3121 44.5395 89.2504 44.5413L89.1341 44.5443C88.7925 44.5482 88.468 44.4065 88.2454 44.1492C88.0226 43.8917 87.9264 43.5482 87.9831 43.2125C88.1892 41.9854 88.2939 40.7407 88.2939 39.5126C88.2939 30.6581 83.0588 22.6724 74.9566 19.1676C74.3775 18.9172 74.111 18.2444 74.3615 17.6654C74.612 17.0863 75.2833 16.8196 75.8638 17.0703C84.8028 20.937 90.579 29.7461 90.579 39.5126C90.579 40.4296 90.5262 41.3547 90.4218 42.2758C101.258 42.7934 109.916 51.8017 109.916 62.8006C109.916 74.1373 101.4 83.2894 90.5285 83.636C90.5164 83.6365 90.5043 83.6367 90.4922 83.6367Z" fill="black"/>
<path d="M39.0465 51.6445H38.8477C38.2167 51.6445 37.7051 51.1329 37.7051 50.502V7.08398C37.7051 6.45305 38.2167 5.94141 38.8477 5.94141H75.4102C76.0413 5.94141 76.5527 6.45305 76.5527 7.08398V48.2168C76.5527 48.8477 76.0413 49.3594 75.4102 49.3594C74.779 49.3594 74.2676 48.8477 74.2676 48.2168V8.22656H39.9902V49.8578C40.1157 50.0413 40.189 50.2629 40.189 50.502C40.189 51.1329 39.6774 51.6445 39.0465 51.6445Z" fill="black"/>
<path d="M75.4102 56.2148H42.2754C39.7553 56.2148 37.7051 54.1646 37.7051 51.6445C37.7051 51.1338 37.7937 50.6222 37.9683 50.124C38.6143 48.2984 40.3449 47.0742 42.2754 47.0742H75.4102C76.0413 47.0742 76.5527 47.5859 76.5527 48.2168V55.0723C76.5527 55.7032 76.0413 56.2148 75.4102 56.2148ZM42.2754 49.3594C41.3111 49.3594 40.4463 49.9718 40.1235 50.8831C40.0355 51.1345 39.9902 51.3918 39.9902 51.6445C39.9902 52.9046 41.0154 53.9297 42.2754 53.9297H74.2676V49.3594H42.2754Z" fill="black"/>
<path d="M66.2695 17.3672H47.9883C47.3573 17.3672 46.8457 16.8555 46.8457 16.2246C46.8457 15.5937 47.3573 15.082 47.9883 15.082H66.2695C66.9007 15.082 67.4121 15.5937 67.4121 16.2246C67.4121 16.8555 66.9007 17.3672 66.2695 17.3672Z" fill="black"/>
<path d="M66.2695 24.2227H47.9883C47.3573 24.2227 46.8457 23.711 46.8457 23.0801C46.8457 22.4491 47.3573 21.9375 47.9883 21.9375H66.2695C66.9007 21.9375 67.4121 22.4491 67.4121 23.0801C67.4121 23.711 66.9007 24.2227 66.2695 24.2227Z" fill="black"/>
<path d="M66.2695 31.0781H47.9883C47.3573 31.0781 46.8457 30.5665 46.8457 29.9355C46.8457 29.3046 47.3573 28.793 47.9883 28.793H66.2695C66.9007 28.793 67.4121 29.3046 67.4121 29.9355C67.4121 30.5665 66.9007 31.0781 66.2695 31.0781Z" fill="black"/>
</svg>
