<svg width="245" height="245" viewBox="0 0 245 245" fill="none" xmlns="http://www.w3.org/2000/svg">
<path d="M175.25 60.3482C175.84 59.8365 176.533 59.4581 177.283 59.2388C178.032 59.0195 178.82 58.9645 179.593 59.0775C180.351 59.1847 181.076 59.4604 181.714 59.8843C182.351 60.3083 182.886 60.8698 183.278 61.5275C183.733 62.4349 183.991 63.4278 184.037 64.4417C184.368 68.4091 183.602 72.3912 181.823 75.9528C180.984 77.7527 179.767 79.3505 178.254 80.6372C177.025 81.6335 175.559 82.2943 173.999 82.5551L173.27 82.6676C172.921 83.9743 172.529 85.0756 172.336 85.6597C171.096 89.0253 164.154 100.677 155.42 104.915C155.398 107.855 155.34 111.221 156.365 113.765C158.118 118.092 167.562 123.544 168.213 123.827C168.213 123.827 163.083 143.559 138.685 143.559C107.66 143.559 108.925 123.067 108.925 123.067C109.576 122.784 117.544 118.092 119.294 113.765C120.461 110.878 120.224 106.925 120.243 103.741C117.148 101.787 114.391 99.3446 112.08 96.5073C108.793 92.475 106.394 87.7936 105.042 82.7699L103.657 82.5558C102.097 82.2949 100.631 81.6341 99.4019 80.6378C97.8893 79.3511 96.672 77.7533 95.833 75.9534C94.0538 72.3919 93.2879 68.4098 93.6189 64.4424C93.6649 63.4286 93.9232 62.4357 94.3773 61.5282C94.7696 60.8704 95.3043 60.309 95.942 59.885C96.5798 59.461 97.3044 59.1853 98.0627 59.0782C98.8355 58.9652 99.6236 59.0202 100.373 59.2395C101.123 59.4588 101.816 59.8372 102.406 60.3489C102.406 60.3489 105.855 27.9966 138.988 27.9966C172.121 27.9966 175.25 60.3482 175.25 60.3482Z" fill="white"/>
<path d="M180.812 35.827C180.504 34.4974 180.104 33.191 179.615 31.9172C177.814 27.3175 175.056 22.0082 169.469 18.9422L162.914 14.0132C156.375 3.18524 144.321 1.06872 134.044 1.7871C121.842 2.64306 113.145 5.91713 105.216 15.231C93.661 28.8031 93.3377 46.7566 97.7036 59.1473C97.8091 59.117 97.9167 59.0943 98.0255 59.0796C98.7924 58.9673 99.5745 59.0219 100.318 59.2396C101.062 59.4573 101.75 59.8329 102.336 60.3408L108.058 54.1152C110.45 50.7131 117.234 42.2802 122.391 41.2494C126.078 40.5127 130.007 41.3111 133.832 41.1572C140.765 40.8787 146.498 37.5951 152.647 35.1994C153.466 34.8809 154.292 34.5772 155.129 34.2994C155.591 34.1128 156.09 34.0311 156.587 34.0601C157.159 34.1704 157.677 34.4703 158.058 34.9114C165.198 41.8783 171.902 51.8923 173.113 62.338C174.217 61.333 175.316 60.3408 175.316 60.3408C175.902 59.8329 176.59 59.4573 177.334 59.2396C178.077 59.0219 178.86 58.9673 179.626 59.0796C179.788 59.1029 179.948 59.1366 180.106 59.1805C182.49 51.7927 182.419 42.6286 180.812 35.827Z" fill="#7A7473"/>
<path d="M153.791 105.035C153.676 107.543 153.844 110.055 154.291 112.525C154.698 114.321 155.569 115.978 156.818 117.331C159.062 119.879 161.969 121.905 164.822 123.717C165.642 124.281 166.501 124.787 167.392 125.233C167.767 125.438 168.207 125.492 168.62 125.383C169.034 125.275 169.391 125.012 169.617 124.649C169.831 124.276 169.89 123.833 169.781 123.417C169.672 123 169.404 122.644 169.034 122.423C168.069 121.94 167.141 121.389 166.255 120.774C164.59 119.726 162.997 118.569 161.485 117.31C160.066 116.106 158.606 114.845 157.889 113.215C156.818 110.778 157.026 107.675 157.045 105.035C157.061 102.942 153.808 102.94 153.792 105.035H153.791Z" fill="#211715"/>
<path d="M118.618 104.682C118.632 107.225 118.767 109.877 118.064 112.35C117.489 114.014 116.469 115.489 115.115 116.615C113.772 117.869 112.326 119.009 110.792 120.021C109.942 120.64 109.043 121.189 108.105 121.663C107.734 121.883 107.466 122.239 107.357 122.656C107.247 123.072 107.306 123.515 107.521 123.888C107.746 124.253 108.102 124.517 108.516 124.626C108.931 124.734 109.371 124.679 109.746 124.471C110.793 123.942 111.794 123.324 112.736 122.625C114.515 121.438 116.185 120.096 117.727 118.614C119.335 117.147 120.533 115.286 121.201 113.214C121.984 110.462 121.887 107.513 121.871 104.682C121.86 102.589 118.607 102.584 118.618 104.682Z" fill="#211715"/>
<path d="M99.0652 58.1092C94.5454 44.5161 96.54 28.5443 105.649 17.2487C110.064 11.7727 115.652 7.51598 122.414 5.42522C125.855 4.40183 129.396 3.75488 132.976 3.49575C136.266 3.18694 139.579 3.22101 142.861 3.5974C146.479 4.00688 149.985 5.10001 153.194 6.81861C156.617 8.72064 159.483 11.4836 161.51 14.834C162.599 16.6178 165.414 14.9851 164.319 13.1919C160.329 6.66138 153.832 2.48391 146.401 0.916341C139.23 -0.597687 131.483 -0.125315 124.375 1.52629C117.117 3.2053 110.531 7.02854 105.474 12.4993C99.7873 18.5971 95.9392 26.1773 94.3726 34.3666C92.7977 42.5685 93.3341 51.0363 95.9314 58.9739C96.5888 60.9509 99.7314 60.1037 99.0679 58.1092H99.0652Z" fill="#211715"/>
<path d="M109.463 54.9332C111.901 51.4025 114.793 48.2086 118.066 45.4343C119.71 44.0789 121.387 43.004 123.441 42.7065C126.718 42.2321 130.063 42.8637 133.354 42.7953C139.682 42.6597 145.336 39.9841 151.058 37.585C152.582 36.9465 154.122 36.3081 155.702 35.8229C156.299 35.6386 156.459 35.6358 156.909 36.0614C157.429 36.5541 157.925 37.0733 158.423 37.5917C160.467 39.7241 162.345 42.0107 164.038 44.4313C167.814 49.8564 170.82 56.0976 171.53 62.7379C171.542 63.1654 171.718 63.5721 172.02 63.8746C172.323 64.177 172.729 64.3523 173.157 64.3644C173.587 64.3616 173.999 64.1893 174.304 63.8849C174.608 63.5804 174.781 63.1684 174.783 62.7379C173.981 56.2935 171.701 50.1214 168.122 44.7024C166.362 41.9515 164.386 39.3453 162.212 36.9086C161.226 35.7978 160.21 34.6958 159.125 33.6799C157.707 32.353 156.177 32.2276 154.381 32.8355C148.178 34.9364 142.373 38.5283 135.785 39.3708C132.256 39.8221 128.73 39.202 125.193 39.3186C122.538 39.3333 119.947 40.1378 117.751 41.6296C113.341 44.6394 109.711 48.9585 106.651 53.2932C106.437 53.6665 106.378 54.1091 106.487 54.5254C106.596 54.9417 106.865 55.2985 107.234 55.5188C107.609 55.7275 108.05 55.7833 108.464 55.6745C108.879 55.5658 109.236 55.3009 109.46 54.9353L109.463 54.9332Z" fill="#211715"/>
<path d="M168.651 20.3466C173.146 22.8583 175.963 27.1672 177.849 31.8476C179.864 36.8458 180.472 42.3522 180.322 47.7062C180.247 51.0623 179.762 54.3967 178.877 57.6348C178.312 59.6538 181.452 60.5158 182.013 58.4996C183.669 52.2868 184.045 45.8025 183.118 39.4401C182.461 34.0432 180.563 28.8717 177.574 24.3303C175.707 21.5303 173.213 19.2038 170.29 17.5355C168.46 16.5128 166.818 19.3219 168.648 20.3439L168.651 20.3466Z" fill="#211715"/>
<path d="M86.9854 243.399C87.0193 242.484 87.0464 241.678 87.0803 241.007C86.877 229.114 86.387 213.01 85.6673 196.559L85.325 197.007L84.1973 198.48C81.1218 202.363 74.7011 209.95 70.6009 213.537C66.5129 217.113 60.1179 219.304 54.7354 218.446C46.3547 217.09 42.6896 209.117 39.2678 201.338C34.3469 190.15 30.8485 178.117 27.3501 166.942C34.3598 165.417 45.5218 160.3 52.5315 156.614C55.3006 163.423 57.7425 169.49 60.5354 176.032C65.5634 163.001 66.8571 155.876 71.7903 142.992C72.7059 140.601 73.3924 138.451 75.1396 136.576C76.7796 134.818 78.9497 133.721 81.1408 132.731C87.8739 129.688 104.004 123.514 112.166 119.854C113.663 116.226 115.889 112.945 118.706 110.213C123.259 114.766 128.582 118.477 134.429 121.172C134.755 121.32 135.118 121.501 135.223 121.843C135.274 122.151 135.209 122.467 135.041 122.73C134.782 123.157 134.494 123.564 134.179 123.95L141.295 123.941C140.982 123.559 140.695 123.154 140.438 122.732C140.27 122.468 140.205 122.152 140.256 121.844C140.361 121.505 140.725 121.321 141.05 121.174C146.897 118.478 152.221 114.768 156.773 110.214C159.431 112.78 161.558 115.842 163.034 119.228C170.193 122.093 188.449 129.114 195.326 132.437C197.535 133.504 199.957 134.462 201.629 136.256C203.412 138.167 204.446 140.735 205.38 143.175C210.351 156.154 212.439 168.9 215.15 183.057H193.308C192.47 203.807 191.694 226.691 191.373 242.465C191.367 242.784 191.367 243.096 191.36 243.401L86.9854 243.399Z" fill="white"/>
<path d="M140.322 242.176C143.885 238.258 147.226 234.144 150.329 229.852C151.245 228.517 152.028 227.797 152.114 226.797C152.147 225.493 152.071 224.187 151.887 222.895C149.981 201.473 147.154 167.986 143.513 136.731C143.619 135.455 143.903 134.201 144.359 133.004C144.884 131.394 145.98 127.699 145.403 129.014C144.817 128.304 144.238 127.6 143.693 126.934C142.74 125.767 141.892 124.715 141.297 123.943L134.181 123.952C133.587 124.723 132.742 125.772 131.792 126.934C131.411 127.399 131.014 127.882 130.61 128.374C130.919 130.033 131.514 131.798 131.903 133.463C131.971 133.794 132.057 134.112 132.139 134.443C132.345 135.149 132.463 135.877 132.493 136.611C129.85 165.39 126.45 200.962 124.073 225.578C123.907 226.511 123.981 227.472 124.291 228.368C124.696 229.149 125.179 229.887 125.733 230.571C128.728 234.721 132.036 238.637 135.627 242.284C136.224 242.894 137 243.297 137.842 243.436C138.307 243.414 138.763 243.295 139.18 243.088C139.598 242.881 139.968 242.59 140.268 242.234L140.322 242.176Z" fill="#65A0D4"/>
<path d="M132.994 138.138C136.391 138.138 139.787 138.063 143.184 138.061C143.615 138.061 144.029 137.89 144.334 137.585C144.639 137.28 144.811 136.866 144.811 136.435C144.811 136.003 144.639 135.59 144.334 135.285C144.029 134.979 143.615 134.808 143.184 134.808C139.787 134.808 136.391 134.883 132.994 134.885C132.562 134.885 132.149 135.056 131.844 135.361C131.539 135.666 131.367 136.08 131.367 136.511C131.367 136.943 131.539 137.356 131.844 137.661C132.149 137.966 132.562 138.138 132.994 138.138Z" fill="#211715"/>
<path d="M129.067 128.955C129.498 131.049 130.151 133.097 130.646 135.178C131.091 137.058 130.636 139.114 130.46 141.019C130.092 145.006 129.721 148.994 129.349 152.982C128.578 161.25 127.801 169.516 127.018 177.78C125.561 193.165 124.09 208.549 122.605 223.932C122.413 225.923 122.104 227.869 123.144 229.693C124.315 231.554 125.619 233.328 127.048 234.999C128.404 236.724 129.816 238.402 131.287 240.034C131.981 240.806 132.685 241.567 133.401 242.318C134.091 243.147 134.907 243.862 135.819 244.437C136.731 244.936 137.787 245.103 138.808 244.91C139.829 244.718 140.752 244.178 141.419 243.382C142.749 241.973 143.99 240.463 145.242 238.984C147.831 235.923 150.201 232.729 152.582 229.509C153.086 228.899 153.452 228.188 153.655 227.425C153.794 226.57 153.809 225.699 153.7 224.84C153.553 223.162 153.386 221.485 153.238 219.807C152.939 216.432 152.641 213.057 152.344 209.682C151.661 201.948 150.964 194.215 150.253 186.484C149.453 177.854 148.615 169.227 147.738 160.603C147.29 156.22 146.826 151.838 146.348 147.455C146.107 145.241 145.86 143.027 145.608 140.813C145.483 139.712 145.356 138.611 145.229 137.509C145.131 136.438 145.268 135.357 145.631 134.344C146.106 132.79 146.635 131.253 147.038 129.676C147.556 127.647 144.419 126.781 143.901 128.812C143.498 130.388 142.968 131.925 142.494 133.48C142.127 134.524 141.921 135.619 141.884 136.725C141.903 137.76 142.129 138.839 142.247 139.868C142.741 144.191 143.217 148.516 143.675 152.842C144.584 161.39 145.442 169.942 146.251 178.5C147.645 193.146 148.918 207.803 150.22 222.458C150.297 223.329 150.398 224.199 150.466 225.072C150.572 225.682 150.553 226.307 150.41 226.91C150.006 227.613 149.539 228.278 149.013 228.895C148.48 229.654 147.946 230.41 147.391 231.152C145.072 234.25 142.544 237.195 139.987 240.098C139.512 240.635 138.964 241.531 138.234 241.743C137.646 241.914 137.082 241.428 136.67 241.018C135.168 239.515 133.739 237.931 132.347 236.325C130.955 234.72 129.624 233.09 128.353 231.4C127.764 230.616 127.185 229.822 126.61 229.028C125.967 228.315 125.618 227.384 125.634 226.424C125.761 223.047 126.271 219.646 126.595 216.279C126.943 212.654 127.291 209.029 127.638 205.403C128.389 197.574 129.136 189.745 129.878 181.915C130.646 173.828 131.409 165.738 132.166 157.647C132.535 153.696 132.903 149.746 133.27 145.796C133.444 143.924 133.617 142.052 133.79 140.181C133.875 139.262 133.96 138.344 134.044 137.426C134.128 136.275 134.013 135.117 133.705 134.005C133.217 132.031 132.612 130.074 132.202 128.086C131.78 126.036 128.644 126.904 129.065 128.95L129.067 128.955Z" fill="#211715"/>
<path d="M141.305 122.315L134.207 122.324C133.776 122.324 133.362 122.495 133.057 122.8C132.752 123.105 132.58 123.519 132.58 123.95C132.58 124.382 132.752 124.795 133.057 125.1C133.362 125.405 133.776 125.577 134.207 125.577L141.305 125.568C141.737 125.568 142.151 125.397 142.456 125.092C142.761 124.787 142.932 124.373 142.932 123.941C142.932 123.51 142.761 123.096 142.456 122.791C142.151 122.486 141.737 122.315 141.305 122.315Z" fill="#211715"/>
<path d="M151.319 135.938C155.176 132.075 158.164 127.494 160.987 122.85C161.665 121.728 162.343 120.602 163.025 119.481C163.449 118.783 164.066 118.062 163.825 117.187C163.577 116.529 163.249 115.904 162.849 115.325C161.52 113.011 159.861 110.902 157.927 109.064C157.618 108.766 157.206 108.599 156.776 108.599C156.347 108.599 155.935 108.766 155.626 109.064C151.746 112.955 147.28 116.213 142.392 118.722C141.331 119.268 139.795 119.671 139.071 120.672C138.758 121.165 138.608 121.745 138.643 122.328C138.678 122.911 138.896 123.469 139.266 123.921C140.649 125.945 142.31 127.809 143.867 129.698C145.583 131.779 147.317 133.846 149.018 135.938C149.324 136.24 149.737 136.41 150.168 136.41C150.599 136.41 151.012 136.24 151.318 135.938C151.614 135.628 151.78 135.216 151.78 134.788C151.78 134.359 151.614 133.947 151.318 133.638C149.586 131.508 147.822 129.405 146.076 127.287C145.084 126.083 144.093 124.878 143.122 123.656C142.811 123.263 141.824 122.301 141.882 121.844L141.661 122.668C141.586 122.821 141.381 122.798 141.673 122.675C141.869 122.592 142.059 122.496 142.252 122.404C142.592 122.245 142.931 122.083 143.268 121.917C144 121.555 144.723 121.176 145.437 120.78C146.953 119.94 148.426 119.028 149.857 118.045C152.75 116.076 155.452 113.84 157.926 111.364H155.626C157.756 113.409 159.524 115.802 160.852 118.44V116.798C157.26 122.655 153.912 128.736 149.018 133.638C147.538 135.121 149.837 137.422 151.319 135.938Z" fill="#211715"/>
<path d="M126.464 133.638C121.57 128.736 118.223 122.655 114.63 116.798V118.44C115.958 115.802 117.725 113.409 119.856 111.364H117.556C120.03 113.84 122.732 116.077 125.625 118.045C127.015 118.998 128.446 119.886 129.918 120.709C130.631 121.107 131.354 121.489 132.086 121.854C132.424 122.021 132.763 122.184 133.103 122.345C133.306 122.439 133.506 122.533 133.709 122.625C133.776 122.655 133.841 122.688 133.904 122.726C134.061 122.817 134.033 122.794 133.82 122.665L133.598 121.844C133.657 122.299 132.67 123.263 132.358 123.656C131.388 124.876 130.397 126.083 129.405 127.287C127.659 129.405 125.894 131.508 124.162 133.638C123.869 133.949 123.705 134.36 123.705 134.788C123.705 135.216 123.869 135.627 124.162 135.938C124.469 136.24 124.882 136.41 125.313 136.41C125.743 136.41 126.156 136.24 126.463 135.938C129.58 132.107 132.86 128.394 135.831 124.446C136.455 123.762 136.82 122.881 136.866 121.956C136.823 120.346 135.325 119.824 134.109 119.232C131.642 118.027 129.271 116.634 127.018 115.065C124.452 113.288 122.054 111.279 119.855 109.064C119.546 108.766 119.134 108.6 118.705 108.6C118.276 108.6 117.863 108.766 117.555 109.064C115.62 110.902 113.962 113.011 112.632 115.325C112.232 115.904 111.905 116.529 111.656 117.187C111.429 118.014 111.973 118.687 112.377 119.351C113.086 120.515 113.787 121.685 114.494 122.85C117.316 127.494 120.306 132.075 124.162 135.938C125.645 137.421 127.945 135.122 126.464 133.638Z" fill="#211715"/>
<path d="M79.7935 135.675C81.4329 148.524 82.1912 161.497 82.9306 174.423C83.8144 189.872 84.4874 205.332 84.9496 220.801C85.0702 224.664 85.178 228.527 85.2728 232.39C85.3616 236.061 85.4924 239.73 85.3576 243.4C85.2803 245.494 88.5333 245.491 88.6106 243.4C88.8546 236.764 88.4812 230.078 88.2833 223.442C88.0574 215.877 87.7863 208.315 87.47 200.755C86.839 185.578 86.0753 170.4 84.9238 155.253C84.427 148.718 83.8747 142.179 83.0452 135.677C83.0319 135.25 82.8563 134.844 82.5541 134.541C82.2519 134.239 81.8458 134.064 81.4186 134.05C80.988 134.053 80.5756 134.225 80.2711 134.529C79.9665 134.834 79.7944 135.246 79.7921 135.677L79.7935 135.675Z" fill="#211715"/>
<path d="M192.986 243.399C193.108 235.923 193.338 228.447 193.57 220.973C193.834 212.491 194.127 204.011 194.451 195.532C194.765 187.188 195.104 178.845 195.467 170.503C195.775 163.459 196.108 156.417 196.467 149.376C196.701 144.916 196.922 140.45 197.289 135.998C197.315 135.689 197.341 135.381 197.371 135.072C197.368 134.642 197.195 134.23 196.891 133.926C196.586 133.621 196.174 133.449 195.744 133.446C195.315 133.455 194.907 133.629 194.604 133.932C194.301 134.235 194.126 134.644 194.117 135.072C193.741 139.118 193.547 143.185 193.327 147.241C192.96 154.032 192.631 160.824 192.341 167.618C191.975 175.863 191.636 184.109 191.325 192.355C190.998 200.889 190.697 209.424 190.42 217.96C190.179 225.505 189.971 233.05 189.795 240.595C189.775 241.53 189.757 242.465 189.742 243.4C189.708 245.494 192.961 245.494 192.995 243.4L192.986 243.399Z" fill="#211715"/>
<path d="M39.8574 123.267C38.3393 117.259 34.0744 102.269 32.5055 100.267C31.3792 98.8293 30.0454 97.7226 27.5724 98.7758C25.4525 99.6799 25.7961 102.128 26.1973 104.151C26.6385 106.378 29.2647 116.892 30.7983 122.35C30.2157 121.696 29.4433 121.24 28.5891 121.047C27.7348 120.853 26.8415 120.932 26.034 121.271C24.3519 122.038 23.7033 123.472 23.8917 124.508C23.8917 124.508 24.0401 125.321 24.255 126.486C23.6504 126.158 22.9725 125.987 22.2844 125.991C21.5963 125.995 20.9203 126.173 20.3194 126.508C18.8671 127.286 17.4052 129.368 18.1189 130.87L19.0785 132.883L18.779 132.637C16.9342 131.12 13.73 132.054 13.2095 134.077C12.8096 135.63 13.4846 137.461 14.3487 138.881C14.4517 139.05 14.5615 139.231 14.6774 139.423L14.8462 139.943C16.0179 143.572 18.3025 149.116 21.7169 153.067C23.3028 154.897 25.1346 156.717 26.5728 158.682C28.0109 160.646 28.3694 162.829 29.0715 165.18L29.3839 166.22C33.1006 164.847 43.5612 160.938 49.1273 158.29L48.9294 157.733C48.3818 155.207 47.7773 151.923 48.1365 149.782C48.7768 147.369 49.5834 145.003 50.5505 142.701C51.3413 140.831 51.6872 138.804 51.561 136.778C51.3082 134.473 50.7118 131.184 48.9999 128.785C48.6604 128.317 48.2366 127.917 47.7502 127.605C47.6949 127.565 47.6362 127.53 47.5746 127.5C45.5354 126.25 42.8536 126.244 40.5433 126.343L40.3501 125.36C40.2688 124.942 40.0973 124.216 39.8574 123.267Z" fill="white"/>
<path d="M41.9171 124.923C41.3634 122.139 40.5311 119.392 39.7646 116.662C38.6654 112.746 37.5234 108.834 36.2134 104.982C35.2646 102.183 34.3212 98.5324 31.3636 97.183C28.7246 95.9787 25.073 97.3525 24.4204 100.315C23.9887 102.272 24.5505 104.333 24.9957 106.244C26.2242 111.516 27.5602 116.765 29.0038 121.99C29.5575 124.006 32.6967 123.149 32.1403 121.124C30.8994 116.605 29.7452 112.06 28.6398 107.506C28.2847 106.04 27.9018 104.572 27.6456 103.084C27.5101 102.288 27.3786 101.23 27.7344 100.661C28.0089 100.373 28.358 100.166 28.7428 100.064C29.1277 99.9619 29.5333 99.9685 29.9146 100.083C30.2635 100.248 30.5716 100.489 30.8174 100.786C30.9156 100.891 31.2538 101.296 31.1779 101.193C31.0661 101.041 31.2362 101.281 31.2586 101.321C31.4653 101.686 31.6469 102.058 31.8197 102.441C31.9993 102.839 31.7702 102.306 31.8685 102.555C31.92 102.685 31.9729 102.814 32.0244 102.942C32.1531 103.269 32.2779 103.596 32.3985 103.924C32.6696 104.666 32.9305 105.412 33.1826 106.161C34.3876 109.74 35.4536 113.367 36.4797 117C37.2998 119.904 38.1923 122.829 38.784 125.792C38.8986 126.208 39.1738 126.561 39.549 126.774C39.9242 126.987 40.3687 127.042 40.7846 126.927C41.2005 126.813 41.5539 126.538 41.7669 126.162C41.9799 125.787 42.0351 125.343 41.9205 124.927L41.9171 124.923Z" fill="#211715"/>
<path d="M13.2772 140.374C14.6132 144.798 16.6722 148.971 19.3706 152.722C21.0053 154.883 22.9781 156.751 24.6738 158.859C26.2956 160.875 26.7896 163.183 27.5033 165.611C28.0922 167.616 31.2307 166.763 30.6398 164.746C29.9112 162.265 29.3751 159.727 27.7933 157.614C26.1485 155.414 24.158 153.522 22.4285 151.396C19.6329 147.959 17.7732 143.694 16.4117 139.509C15.7665 137.527 12.6246 138.376 13.2745 140.374H13.2772Z" fill="#211715"/>
<path d="M42.3237 138.811C42.1475 137.584 41.7497 136.41 41.463 135.208C41.2189 134.088 40.5595 133.102 39.6175 132.449C38.6197 131.875 37.5006 131.544 36.3509 131.483C35.9759 131.436 35.6035 131.37 35.2354 131.285C35.1941 131.279 35.1538 131.268 35.1154 131.251C35.3337 131.436 34.9284 130.932 34.8721 130.805C34.7163 130.479 34.6755 130.11 34.7563 129.758C34.8125 129.528 34.8996 129.306 35.0151 129.1C35.0877 128.959 35.1825 128.829 35.253 128.688C35.4191 128.356 35.3174 128.642 35.253 128.678C36.0591 128.369 36.9102 128.193 37.7728 128.158C40.077 127.933 42.6754 127.727 44.7913 128.186C45.7862 128.328 46.7142 128.77 47.4513 129.453C48.1004 130.23 48.5905 131.127 48.8935 132.093C49.5854 133.904 49.9487 135.823 49.9663 137.761C49.8986 140.853 48.4076 143.496 47.4391 146.396C47.1999 147.113 46.9647 147.832 46.7546 148.558C46.6943 148.769 46.6313 148.981 46.5879 149.195C46.5513 149.378 46.535 149.564 46.5106 149.748C46.571 149.295 46.4551 150.172 46.4429 150.336C46.2104 152.931 46.8204 155.638 47.3632 158.161C47.8031 160.207 50.9395 159.341 50.4997 157.296C50.007 155.004 49.4574 152.573 49.7061 150.215C49.7318 149.975 49.9203 149.616 49.7434 149.919C49.6017 150.161 49.7264 150.019 49.7684 149.881C49.845 149.624 49.9094 149.364 49.9867 149.107C50.2184 148.337 50.4706 147.574 50.7288 146.814C50.9911 146.04 51.2615 145.268 51.5495 144.504C51.6579 144.216 51.7677 143.929 51.8884 143.646C51.7799 143.903 51.8294 143.774 51.9087 143.618C51.988 143.462 52.0571 143.323 52.1249 143.172C52.9933 141.184 53.3621 139.014 53.1991 136.851C53.0225 134.431 52.437 132.058 51.4675 129.834C50.9842 128.642 50.2169 127.586 49.2322 126.758C48.2476 125.931 47.0755 125.356 45.818 125.085C43.1644 124.596 40.4497 124.535 37.7769 124.905C36.5298 124.966 35.2992 125.215 34.1267 125.644C33.5665 125.908 33.0688 126.289 32.6667 126.76C32.2645 127.231 31.967 127.782 31.7939 128.377C31.5206 129.11 31.4238 129.897 31.5114 130.674C31.599 131.451 31.8686 132.197 32.2982 132.85C32.6231 133.347 33.0586 133.763 33.5706 134.063C34.0826 134.364 34.6572 134.543 35.2496 134.585C36.1029 134.708 37.6345 134.653 38.1374 135.48C38.3862 136.074 38.5602 136.696 38.6552 137.333C38.8827 138.101 39.0611 138.882 39.1892 139.673C39.3061 140.087 39.5816 140.439 39.9561 140.652C40.3306 140.865 40.7739 140.921 41.1899 140.809C41.5988 140.685 41.9444 140.408 42.1554 140.036C42.3664 139.664 42.4266 139.226 42.3237 138.811Z" fill="#211715"/>
<path d="M21.9811 140.099C22.0577 140.37 22.0069 139.808 21.9994 140.192C21.992 140.576 22.0747 140.049 21.9852 140.327C21.9608 140.403 21.7751 140.897 21.9174 140.584C21.8379 140.757 21.7474 140.925 21.6464 141.086C21.5955 141.168 21.5399 141.247 21.4864 141.326C21.5006 141.305 21.6403 141.14 21.5217 141.281C21.4173 141.407 21.3062 141.527 21.1889 141.641C21.1211 141.704 21.0533 141.762 20.989 141.822C21.0398 141.776 21.2526 141.663 21.0106 141.799C20.9585 141.828 20.9049 141.861 20.8548 141.893C20.6555 142.02 20.705 141.934 20.8832 141.893C20.7931 141.914 20.3987 142.016 20.5444 141.99C20.7477 141.953 20.4387 141.997 20.3899 142.001C20.3133 142.005 20.2367 142.007 20.1601 142.008C20.0835 142.009 19.5149 141.972 19.807 142.008C19.5951 141.978 19.3856 141.933 19.1801 141.873C19.071 141.843 18.7057 141.717 18.7735 141.746C18.8555 141.78 18.4963 141.602 18.4143 141.552C18.3323 141.503 18.2442 141.446 18.1629 141.388C18.2232 141.431 18.3709 141.58 18.1588 141.372C18.0144 141.231 17.8681 141.095 17.7312 140.946C17.5943 140.798 17.4818 140.662 17.3625 140.515C17.1883 140.302 17.4763 140.671 17.3083 140.447C17.2574 140.38 17.2066 140.312 17.1571 140.241C16.8921 139.873 16.6421 139.495 16.3988 139.111C15.9417 138.427 15.5318 137.712 15.1721 136.972C15.168 136.962 15.0589 136.69 15.1267 136.864C15.0942 136.78 15.063 136.696 15.0338 136.611C14.9661 136.414 14.9024 136.214 14.8502 136.013C14.8204 135.899 14.7987 135.783 14.7702 135.669C14.7627 135.639 14.7173 135.351 14.7472 135.585C14.718 135.358 14.7295 135.131 14.72 134.907C14.72 134.868 14.7438 134.583 14.7099 134.839C14.7218 134.757 14.7381 134.675 14.7587 134.595C14.7867 134.513 14.8093 134.43 14.8265 134.345C14.8414 134.188 14.7946 134.432 14.7736 134.464C14.8312 134.378 15.1043 133.995 14.8346 134.302C14.9403 134.182 15.0521 134.073 15.1646 133.964C15.2432 133.885 15.3842 133.849 15.1219 133.993C15.1931 133.953 15.2575 133.901 15.3253 133.857C15.393 133.814 15.4723 133.779 15.5428 133.737C15.7936 133.583 15.3842 133.761 15.5591 133.723C15.7238 133.687 15.883 133.613 16.0491 133.573C16.1324 133.554 16.2198 133.544 16.3018 133.522C16.5092 133.465 15.9311 133.531 16.3208 133.526C16.495 133.526 16.6678 133.526 16.8413 133.526C16.9464 133.526 17.1124 133.599 16.7973 133.516C16.8806 133.537 16.968 133.548 17.0521 133.569C17.1361 133.59 17.2188 133.621 17.3028 133.642C17.58 133.71 17.2086 133.551 17.3381 133.652C17.4235 133.72 17.8958 134.006 17.6227 133.791C17.9342 134.084 18.3454 134.247 18.7728 134.247C19.2002 134.247 19.6115 134.084 19.9229 133.791C20.2255 133.485 20.3951 133.072 20.3951 132.641C20.3951 132.211 20.2255 131.798 19.9229 131.491C19.068 130.805 18.0273 130.389 16.9346 130.299C15.8419 130.209 14.747 130.447 13.7909 130.984C11.6263 132.185 11.1207 134.612 11.7076 136.88C12.0427 138.036 12.5472 139.136 13.2047 140.144C13.7994 141.149 14.4712 142.107 15.2141 143.009C15.9681 143.894 16.9492 144.557 18.0519 144.927C19.1546 145.296 20.3371 145.357 21.4722 145.105C23.8001 144.562 25.7764 141.585 25.1122 139.236C24.9975 138.82 24.7223 138.467 24.347 138.254C23.9718 138.041 23.5273 137.985 23.1112 138.1C22.6952 138.215 22.3418 138.49 22.1287 138.865C21.9157 139.241 21.8604 139.685 21.975 140.101L21.9811 140.099Z" fill="#211715"/>
<path d="M25.9777 125.838C23.9446 123.602 20.3255 124.128 18.2673 126.012C17.6955 126.506 17.2277 127.109 16.891 127.786C16.5543 128.463 16.3554 129.2 16.306 129.954C16.2965 131.398 17.2243 132.763 17.9325 133.967C19.1009 135.954 20.497 137.864 21.8267 139.749C22.38 140.62 23.0403 141.419 23.7921 142.126C24.9112 142.996 26.3074 143.432 27.7229 143.353C31.2978 143.2 33.2578 139.699 32.3585 136.417C31.8061 134.4 28.6669 135.256 29.2213 137.282C29.3549 137.647 29.3963 138.04 29.342 138.425C29.2876 138.81 29.1391 139.176 28.9095 139.49C28.7814 139.635 28.6367 139.765 28.4785 139.877C28.1873 140.05 27.8499 140.129 27.5121 140.104C27.1276 140.102 26.746 140.036 26.3837 139.907C26.2484 139.835 26.109 139.771 25.9662 139.715C25.9377 139.709 25.7629 139.585 25.9662 139.728C26.1831 139.881 25.8923 139.655 25.8686 139.631C25.4084 139.164 24.9948 138.654 24.6338 138.107C23.7047 136.79 22.7945 135.453 21.8802 134.125C21.2244 133.165 20.6226 132.17 20.0775 131.143C19.8812 130.801 19.7078 130.446 19.5584 130.081C19.599 130.193 19.5584 129.932 19.5584 129.902C19.5943 129.702 19.6615 129.51 19.7576 129.331C19.9485 128.944 20.2171 128.601 20.5466 128.323C20.8761 128.044 21.2595 127.837 21.6728 127.713C22.0114 127.58 22.3814 127.55 22.7371 127.625C23.0929 127.7 23.4189 127.878 23.6748 128.136C25.0865 129.688 27.3813 127.382 25.975 125.836L25.9777 125.838Z" fill="#211715"/>
<path d="M34.8477 133.536C34.9079 133.92 34.8712 134.312 34.741 134.678C34.6108 135.044 34.3912 135.372 34.1022 135.632C33.9072 135.82 33.6619 135.948 33.3959 136C33.1299 136.052 32.8545 136.025 32.6031 135.924C31.8644 135.454 31.2705 134.788 30.8871 134C30.1585 132.805 29.4096 131.624 28.6506 130.446C27.4178 128.524 26.0075 126.534 25.4938 124.274C25.4938 124.267 25.4219 123.946 25.4687 124.139C25.5155 124.332 25.5432 123.935 25.4748 124.095C25.4063 124.254 25.5941 123.691 25.5256 123.862C25.665 123.531 25.8959 123.246 26.1911 123.042C26.5558 122.773 26.9873 122.61 27.4384 122.57C27.8896 122.531 28.3429 122.616 28.7489 122.817C29.6678 123.251 30.3157 124.268 30.9176 125.053C31.6102 125.961 32.2838 126.892 32.8891 127.861C33.9951 129.634 36.811 128.002 35.6982 126.22C34.9436 125.039 34.1293 123.897 33.2584 122.799C32.3835 121.671 31.5092 120.522 30.1809 119.904C27.2409 118.537 23.1827 119.818 22.3525 123.199C22.0035 124.622 22.5687 126.07 23.1353 127.355C23.8276 128.831 24.6312 130.252 25.5392 131.605C26.4561 133.043 27.3473 134.498 28.2623 135.936C29.0219 137.308 30.2072 138.396 31.6393 139.036C32.4259 139.28 33.2621 139.319 34.068 139.149C34.8739 138.978 35.6225 138.604 36.2424 138.061C36.8862 137.506 37.39 136.806 37.7128 136.02C38.0357 135.233 38.1686 134.382 38.1007 133.534C37.995 131.451 34.7413 131.438 34.8477 133.534V133.536Z" fill="#211715"/>
<path d="M112.603 117.881C103.839 121.94 94.7243 125.274 85.7953 128.982C81.0513 130.95 75.4662 132.732 72.5669 137.267C71.7939 138.57 71.1569 139.95 70.6659 141.384C70.0594 142.983 69.4508 144.581 68.8693 146.189C67.8005 149.145 66.8063 152.128 65.8541 155.123C63.7247 161.823 61.6671 168.533 59.1569 175.104C59.0457 175.52 59.1024 175.963 59.3149 176.337C59.5275 176.711 59.8787 176.987 60.2927 177.105C60.7083 177.21 61.1485 177.15 61.5213 176.939C61.894 176.727 62.1707 176.379 62.2934 175.969C64.5095 170.169 66.3942 164.266 68.2485 158.343C70.0824 152.487 71.9082 146.532 74.3392 140.891C74.8769 139.554 75.677 138.339 76.6922 137.317C77.8326 136.289 79.1249 135.443 80.5234 134.809C82.3044 133.928 84.2318 133.131 85.9275 132.422C90.5536 130.49 95.2123 128.636 99.8574 126.753C104.678 124.799 109.524 122.875 114.245 120.688C114.615 120.468 114.884 120.111 114.993 119.695C115.102 119.279 115.043 118.836 114.829 118.463C114.605 118.098 114.248 117.833 113.833 117.724C113.419 117.616 112.978 117.671 112.603 117.879V117.881Z" fill="#211715"/>
<path d="M66.2885 185.113C61.9802 175.572 58.0406 165.878 54.0983 156.181C54.0269 155.945 53.9034 155.727 53.7369 155.544C53.5703 155.361 53.3651 155.218 53.136 155.125C52.907 155.032 52.66 154.991 52.4132 155.005C52.1663 155.02 51.9259 155.089 51.7094 155.209C47.6372 157.349 43.4819 159.324 39.2434 161.133C35.273 162.921 31.1466 164.341 26.9163 165.374C26.5025 165.492 26.1515 165.768 25.939 166.142C25.7266 166.516 25.6696 166.959 25.7805 167.375C28.2054 175.127 30.5286 182.915 33.27 190.564C34.6728 194.478 36.1903 198.351 37.8622 202.159C39.0659 205.063 40.4598 207.885 42.0349 210.606C43.5594 213.254 45.5993 215.568 48.0341 217.413C50.663 219.268 53.802 220.262 57.0193 220.259C60.6112 220.234 64.1451 219.351 67.3268 217.684C70.0443 216.189 72.4981 214.258 74.5906 211.969C78.9191 207.505 82.9724 202.782 86.7279 197.827C86.9432 197.454 87.0027 197.011 86.8935 196.594C86.7842 196.177 86.515 195.82 86.1444 195.601C85.7695 195.394 85.3294 195.339 84.9152 195.448C84.501 195.557 84.1445 195.82 83.9194 196.185L83.3054 196.987C83.1759 197.156 83.0472 197.326 82.917 197.495C82.8784 197.544 82.8411 197.595 82.8025 197.644C83.0404 197.341 82.8513 197.576 82.7198 197.739C81.9409 198.715 81.1502 199.681 80.3478 200.637C78.3628 203.015 76.3316 205.357 74.2253 207.629C72.3561 209.645 70.4355 211.807 68.1685 213.389C65.515 215.256 62.4504 216.454 59.2348 216.883C56.3621 217.313 53.4278 216.789 50.8812 215.392C48.6168 213.98 46.7189 212.053 45.3429 209.767C43.7633 207.21 42.3847 204.534 41.2196 201.764C39.6957 198.338 38.2894 194.863 37.0008 191.342C33.9972 183.168 31.5113 174.818 28.9149 166.511L27.7791 168.512C32.191 167.419 36.4938 165.925 40.6334 164.048C44.9518 162.216 49.1903 160.205 53.3488 158.017L50.9598 157.045C55.0078 167.001 59.0538 176.956 63.4773 186.754C63.6974 187.124 64.0541 187.393 64.4706 187.502C64.887 187.611 65.3297 187.552 65.7029 187.338C66.0677 187.113 66.3318 186.756 66.4404 186.342C66.5491 185.927 66.4939 185.487 66.2865 185.112L66.2885 185.113Z" fill="#211715"/>
<path d="M161.726 120.444C170.608 124.032 179.628 127.424 188.42 131.136C190.242 131.904 192.144 132.723 193.966 133.581C196.65 134.846 199.629 135.953 201.357 138.504C203.323 141.408 204.39 144.986 205.492 148.283C206.651 151.752 207.649 155.273 208.535 158.821C210.568 166.968 212.009 175.246 213.586 183.49C213.704 183.904 213.98 184.255 214.354 184.467C214.728 184.68 215.171 184.737 215.587 184.626C215.998 184.504 216.346 184.227 216.557 183.854C216.769 183.481 216.828 183.041 216.723 182.625C215.279 175.078 213.944 167.502 212.173 160.022C211.308 156.373 210.335 152.747 209.199 149.172C208.162 145.629 206.857 142.17 205.295 138.824C204.544 137.212 203.494 135.758 202.199 134.538C200.86 133.42 199.368 132.497 197.769 131.798C195.797 130.862 193.82 129.943 191.815 129.077C186.839 126.931 181.805 124.918 176.77 122.917C172.046 121.041 167.303 119.212 162.591 117.309C162.175 117.197 161.731 117.254 161.357 117.467C160.982 117.679 160.707 118.031 160.59 118.445C160.486 118.861 160.545 119.301 160.757 119.673C160.969 120.046 161.315 120.323 161.726 120.446V120.444Z" fill="#211715"/>
<path d="M176.4 61.4983C176.788 61.1785 177.238 60.9407 177.721 60.7993C178.204 60.6579 178.711 60.6159 179.211 60.6756C179.711 60.7354 180.193 60.8958 180.629 61.1472C181.065 61.3985 181.446 61.7356 181.748 62.138C182.272 63.1247 182.521 64.2339 182.469 65.3498C182.537 66.7202 182.46 68.0939 182.238 69.4479C181.42 74.2347 178.898 80.0712 173.564 80.9868C173.149 81.1044 172.798 81.3802 172.585 81.7546C172.373 82.1291 172.316 82.5721 172.427 82.9881C172.55 83.3987 172.827 83.746 173.2 83.9576C173.573 84.1692 174.013 84.2288 174.428 84.124C179.952 83.1752 183.231 77.9567 184.743 72.9755C185.538 70.3605 185.86 67.6244 185.692 64.8964C185.519 62.2187 184.708 59.6996 182.24 58.3062C180.955 57.5988 179.484 57.3049 178.026 57.4645C176.568 57.6241 175.195 58.2295 174.094 59.1981C173.793 59.5049 173.624 59.918 173.624 60.3482C173.624 60.7784 173.793 61.1914 174.094 61.4983C174.403 61.7952 174.816 61.9611 175.244 61.9611C175.673 61.9611 176.085 61.7952 176.394 61.4983H176.4Z" fill="#211715"/>
<path d="M172.316 78.5146C172.227 80.0771 171.937 81.6217 171.454 83.1102C171.289 83.6639 171.108 84.2129 170.924 84.7605C170.863 84.9414 170.806 85.1237 170.739 85.3026C170.694 85.4246 170.493 85.874 170.701 85.4097C170.003 86.9299 169.202 88.4 168.302 89.8095C165.748 94.038 162.494 97.8012 158.678 100.938C156.579 102.676 154.119 103.926 151.477 104.597C149.438 105.066 150.301 108.203 152.342 107.734C157.744 106.492 162.271 102.612 165.842 98.5433C168.899 95.1799 171.449 91.3874 173.409 87.2863C174.684 84.5281 175.417 81.5512 175.571 78.5166C175.639 76.4225 172.386 76.4252 172.318 78.5166L172.316 78.5146Z" fill="#211715"/>
<path d="M103.554 59.1983C102.591 58.3456 101.414 57.7706 100.15 57.5346C98.8856 57.2986 97.5809 57.4105 96.3752 57.8584C93.7158 58.9075 92.3862 61.1447 92.0487 63.8976C91.4114 69.3342 92.7992 74.8151 95.9469 79.2934C97.6534 81.7865 100.262 83.5187 103.222 84.1241C103.638 84.2263 104.077 84.1656 104.449 83.9543C104.821 83.7431 105.098 83.3974 105.223 82.9883C105.334 82.5724 105.278 82.1293 105.065 81.7549C104.853 81.3804 104.501 81.1046 104.087 80.987C98.7554 80.0714 96.2329 74.2348 95.4122 69.4481C95.1987 68.1442 95.1194 66.8218 95.1757 65.5017C95.2156 64.3862 95.2651 63.1013 95.9015 62.1382C96.2035 61.7352 96.584 61.3975 97.0202 61.1458C97.4564 60.8941 97.9392 60.7334 98.4392 60.6736C98.9393 60.6138 99.4463 60.6561 99.9295 60.7979C100.413 60.9396 100.862 61.178 101.251 61.4984C101.561 61.7934 101.973 61.9579 102.401 61.9579C102.829 61.9579 103.241 61.7934 103.551 61.4984C103.852 61.1916 104.021 60.7786 104.021 60.3484C104.021 59.9181 103.852 59.5051 103.551 59.1983H103.554Z" fill="#211715"/>
<path d="M102.302 77.9915C104.278 89.3927 110.457 100.55 121.021 106.052C123.875 107.539 126.986 108.47 130.188 108.795C130.619 108.792 131.031 108.619 131.335 108.315C131.639 108.011 131.812 107.599 131.815 107.168C131.805 106.74 131.631 106.331 131.328 106.028C131.025 105.725 130.617 105.551 130.188 105.541C119.299 104.413 110.815 94.6471 107.396 84.8378C106.534 82.3252 105.879 79.7462 105.439 77.1267C105.321 76.7127 105.046 76.3616 104.671 76.1491C104.297 75.9367 103.854 75.8798 103.438 75.9908C103.028 76.1137 102.68 76.3903 102.469 76.763C102.257 77.1357 102.197 77.5758 102.302 77.9915Z" fill="#211715"/>
<path d="M211.293 206.966C214.898 203.755 228.84 191.446 231.896 188.386C229.388 185.789 224.591 183.266 218.833 182.73C213.894 182.156 208.893 182.422 204.042 183.516C199.15 184.736 192.814 187.759 189.42 191.649C185.268 187.687 179.119 185.937 173.549 185.753C167.909 185.591 162.297 186.598 157.066 188.712C152.81 190.413 149.368 192.853 147.008 197.382C150.272 200.235 165.615 210.75 169.01 213.444L211.293 206.966Z" fill="#3F88C9"/>
<path d="M146.258 188.731C145.421 189.522 144.645 190.376 143.938 191.285C145.188 192.591 146.517 193.82 147.919 194.963L148.308 195.252C150.564 192.048 153.536 190.127 157.068 188.715C162.299 186.602 167.911 185.594 173.551 185.756C179.121 185.94 185.27 187.69 189.422 191.653C192.816 187.76 199.152 184.74 204.044 183.52C208.895 182.426 213.896 182.16 218.835 182.733C221.809 183.005 224.705 183.831 227.375 185.169L227.486 185.058C228.352 184.236 230.083 182.505 231.553 180.947C226.231 176.924 223.247 176.323 216.972 175.713C212.196 175.248 206.77 175.091 202.102 176.255C197.433 177.418 191.445 179.368 188.128 183.058C184.393 180.426 179.166 178.933 173.553 178.748C167.913 178.585 162.3 179.593 157.069 181.707C154.665 182.61 152.389 183.822 150.299 185.315C148.889 186.376 147.54 187.517 146.258 188.731Z" fill="white"/>
<path d="M197.98 198.633C197.783 198.474 197.584 198.317 197.384 198.162C194.824 196.185 192.969 195.876 190.336 197.349L188.927 198.572C187.851 197.431 186.939 196.485 186.549 196.147C185.988 195.639 185.305 195.285 184.567 195.119C183.828 194.953 183.059 194.98 182.335 195.198C180.672 195.817 179.976 196.726 179.976 198.118C179.976 198.118 179.908 198.622 179.818 199.301C178.937 198.369 178.143 197.565 177.537 197.022C177.025 196.563 174.526 195.328 172.861 196.581C171.394 197.683 171.166 199.156 172.017 200.453C172.106 200.603 172.187 200.758 172.26 200.916L171.888 200.722C171.417 200.461 170.895 200.304 170.358 200.261C169.821 200.218 169.281 200.29 168.774 200.473C168.267 200.655 167.805 200.944 167.419 201.319C167.033 201.695 166.731 202.148 166.534 202.65C166.271 203.849 166.422 205.102 166.962 206.205C168.04 208.287 172.746 213.51 175.287 216.195C181.107 220.312 190.395 217.445 197.835 215.715C198.88 215.457 199.876 215.029 200.783 214.447C203.566 212.516 204.998 210.141 207.271 207.631C208.237 206.7 209.093 205.662 209.824 204.537C210.564 203.091 211.174 201.518 210.762 199.947C210.593 199.124 210.131 198.391 209.461 197.884C208.354 197.154 206.873 197.502 205.646 198.003C203.812 198.752 202.106 199.784 200.592 201.061C199.784 200.187 198.911 199.376 197.98 198.633Z" fill="white"/>
<path d="M199.966 213.044C198.397 214.128 196.399 214.385 194.584 214.823C192.399 215.351 190.21 215.868 187.993 216.239C184.229 216.869 179.956 217.167 176.566 215.099C174.774 214.006 173.138 216.818 174.924 217.908C178.943 220.36 183.834 220.16 188.315 219.467C190.673 219.1 192.999 218.554 195.317 217.995C197.446 217.482 199.767 217.127 201.608 215.855C201.972 215.63 202.236 215.274 202.345 214.86C202.453 214.445 202.399 214.005 202.192 213.63C201.971 213.261 201.615 212.992 201.198 212.883C200.782 212.774 200.34 212.833 199.966 213.047V213.044Z" fill="#211715"/>
<path d="M203.09 201.559C201.423 199.296 199.339 197.373 196.95 195.893C195.87 195.216 194.629 194.839 193.355 194.801C192 194.851 190.681 195.243 189.518 195.941C189.146 196.158 188.875 196.515 188.766 196.932C188.656 197.35 188.717 197.793 188.934 198.166C189.152 198.538 189.509 198.809 189.926 198.919C190.344 199.028 190.787 198.967 191.16 198.75C191.541 198.517 191.951 198.335 192.38 198.207C192.613 198.135 192.851 198.08 193.093 198.045C192.807 198.083 193.333 198.05 193.432 198.052C193.471 198.052 193.875 198.082 193.671 198.059C193.495 198.039 193.803 198.085 193.835 198.092C194.041 198.137 194.245 198.195 194.445 198.265C194.512 198.289 194.784 198.408 194.597 198.321C194.702 198.369 194.807 198.422 194.91 198.476C195.158 198.605 195.399 198.747 195.634 198.901C197.411 200.065 198.982 201.518 200.281 203.198C200.508 203.561 200.865 203.823 201.278 203.931C201.692 204.04 202.131 203.986 202.507 203.782C202.877 203.562 203.146 203.205 203.255 202.789C203.364 202.373 203.305 201.93 203.09 201.557L203.09 201.559Z" fill="#211715"/>
<path d="M195.594 203.278C193.814 201.602 192.218 199.702 190.545 197.919C189.716 197.038 188.893 196.138 188.021 195.295C187.321 194.583 186.464 194.047 185.518 193.729C184.572 193.411 183.564 193.32 182.577 193.465C181.435 193.616 180.384 194.166 179.61 195.019C178.836 195.871 178.389 196.971 178.35 198.121C178.303 200.215 181.556 200.215 181.603 198.121C181.612 197.68 181.573 197.725 181.798 197.385C181.662 197.588 182.021 197.164 182.089 197.114C182.001 197.181 182.471 196.906 182.554 196.866C182.905 196.698 183.29 196.616 183.679 196.625C184.068 196.635 184.449 196.736 184.791 196.921C185.86 197.433 186.7 198.585 187.496 199.429C189.426 201.469 191.251 203.661 193.297 205.586C194.821 207.02 197.126 204.725 195.598 203.286L195.594 203.278Z" fill="#211715"/>
<path d="M170.162 212.298C164.198 207.582 157.767 203.442 151.646 198.932C150.911 198.39 150.18 197.842 149.454 197.288C149.263 197.141 149.661 197.449 149.477 197.305L149.237 197.118C149.101 197.013 148.971 196.908 148.84 196.801C148.61 196.616 148.383 196.428 148.162 196.235L148.416 198.206C149.596 195.891 151.329 193.902 153.461 192.416C155.852 190.886 158.465 189.733 161.207 188.997C167.21 187.217 173.826 186.672 179.918 188.339C183.025 189.123 185.894 190.655 188.274 192.802C188.582 193.102 188.994 193.271 189.424 193.271C189.854 193.271 190.267 193.102 190.574 192.802C194.031 188.902 199.275 186.427 204.255 185.144C207.491 184.352 210.819 183.999 214.15 184.093C217.35 184.044 220.54 184.474 223.614 185.367C226.291 186.168 228.737 187.597 230.749 189.536V187.236C228.406 189.573 225.9 191.756 223.441 193.968C220.247 196.841 217.041 199.701 213.825 202.548C212.598 203.637 211.371 204.727 210.144 205.816C208.577 207.211 210.885 209.505 212.444 208.116C218.191 202.999 223.974 197.921 229.652 192.725C230.797 191.678 231.949 190.633 233.049 189.536C233.348 189.228 233.515 188.815 233.515 188.386C233.515 187.957 233.348 187.544 233.049 187.236C228.572 182.681 222.088 181.193 215.93 180.896C209.219 180.457 202.508 181.74 196.433 184.623C193.359 186.036 190.588 188.031 188.273 190.498H190.574C185.782 185.999 179.069 184.164 172.617 184.107C168.881 184.084 165.157 184.559 161.546 185.519C158.333 186.294 155.253 187.542 152.406 189.222C149.53 191.024 147.184 193.558 145.608 196.564C145.432 196.876 145.361 197.237 145.407 197.592C145.453 197.947 145.613 198.279 145.862 198.535C148.4 200.741 151.229 202.649 153.957 204.606C157.401 207.076 160.87 209.513 164.309 211.986C165.051 212.518 165.791 213.055 166.529 213.595C166.822 213.811 167.115 214.027 167.41 214.247L167.781 214.528C167.952 214.658 167.49 214.3 167.868 214.596C168.179 214.889 168.591 215.052 169.018 215.052C169.446 215.052 169.857 214.889 170.168 214.596C170.471 214.29 170.64 213.877 170.64 213.446C170.64 213.015 170.471 212.602 170.168 212.296L170.162 212.298Z" fill="#211715"/>
<path d="M148.739 193.557C149.072 193.81 148.73 193.543 148.604 193.436C148.434 193.294 148.267 193.149 148.1 193.003C147.679 192.634 147.265 192.257 146.854 191.878C146.223 191.342 145.634 190.759 145.092 190.134V192.434C148.826 187.609 154.136 184.318 159.866 182.41C165.885 180.314 172.344 179.807 178.617 180.94C181.727 181.504 184.687 182.704 187.312 184.464C187.623 184.644 187.985 184.717 188.341 184.671C188.697 184.624 189.028 184.462 189.283 184.209C191.206 182.255 193.544 180.758 196.124 179.829C198.838 178.731 201.659 177.92 204.541 177.409C207.885 176.925 211.275 176.836 214.64 177.142C217.412 177.257 220.168 177.621 222.875 178.232C225.744 179.066 228.417 180.467 230.737 182.35L230.407 179.795C229.082 181.194 227.734 182.574 226.341 183.905C224.824 185.354 227.126 187.652 228.641 186.206C230.035 184.875 231.383 183.495 232.708 182.095C232.878 181.917 233.007 181.702 233.084 181.468C233.161 181.233 233.184 180.984 233.153 180.739C233.121 180.495 233.035 180.26 232.901 180.052C232.767 179.845 232.589 179.67 232.378 179.541C230.067 177.706 227.454 176.288 224.656 175.351C221.768 174.581 218.805 174.121 215.819 173.979C212.265 173.627 208.683 173.654 205.135 174.06C201.963 174.5 198.851 175.305 195.863 176.459C192.61 177.686 189.366 179.31 186.985 181.909L188.956 181.655C183.652 177.971 176.782 176.848 170.444 177.145C163.735 177.458 156.656 179.336 150.926 182.92C147.822 184.842 145.071 187.283 142.793 190.136C142.505 190.449 142.345 190.86 142.345 191.286C142.345 191.712 142.505 192.122 142.793 192.436C144.066 193.915 145.513 195.235 147.103 196.367C147.476 196.582 147.919 196.641 148.335 196.532C148.752 196.423 149.109 196.154 149.328 195.783C149.536 195.408 149.591 194.968 149.482 194.554C149.373 194.139 149.109 193.783 148.745 193.558L148.739 193.557Z" fill="#211715"/>
<path d="M172.712 199.317C171.794 198.813 170.75 198.583 169.705 198.655C168.659 198.727 167.657 199.098 166.816 199.724C166.14 200.211 165.599 200.863 165.245 201.618C164.89 202.372 164.734 203.204 164.79 204.036C164.92 205.758 165.583 207.396 166.688 208.723C167.772 210.181 168.946 211.573 170.144 212.942C171.44 214.427 172.766 215.885 174.121 217.317C175.561 218.842 177.858 216.538 176.421 215.013C173.879 212.427 171.501 209.685 169.299 206.805C168.925 206.335 168.599 205.828 168.328 205.292C168.132 204.823 168.035 204.319 168.041 203.811C168.049 203.681 168.049 203.552 168.041 203.422C168.048 203.367 168.189 202.827 168.097 203.084C168.006 203.34 168.21 202.898 168.242 202.846C168.458 202.494 168.039 203.042 168.345 202.71C168.546 202.467 168.792 202.266 169.07 202.118C169.379 201.955 169.723 201.871 170.073 201.873C170.422 201.874 170.766 201.961 171.074 202.126C171.449 202.333 171.889 202.388 172.303 202.279C172.717 202.17 173.074 201.907 173.299 201.542C173.513 201.169 173.572 200.727 173.462 200.311C173.353 199.895 173.085 199.538 172.716 199.317H172.712Z" fill="#211715"/>
<path d="M187.677 205.514C186.002 203.7 184.37 201.846 182.704 200.025C181.881 199.124 181.053 198.228 180.202 197.353C179.574 196.631 178.865 195.984 178.089 195.424C175.613 193.85 172.163 194.09 170.532 196.735C168.668 199.759 171.425 202.514 173.231 204.724C175.273 207.271 177.452 209.707 179.756 212.021C181.247 213.492 183.551 211.193 182.056 209.721C180.243 207.933 178.535 206.054 176.905 204.096C176.077 203.099 175.261 202.092 174.44 201.09C174.058 200.635 173.718 200.147 173.423 199.631C173.339 199.496 173.266 199.354 173.204 199.207C173.195 199.179 173.127 198.813 173.145 198.963C173.16 199.099 173.191 198.677 173.141 198.876C173.23 198.499 173.455 198.169 173.773 197.947C174.09 197.725 174.479 197.627 174.863 197.673C175.246 197.729 175.622 197.83 175.981 197.974C175.793 197.896 176.204 198.089 176.288 198.137C176.356 198.175 176.424 198.229 176.496 198.263C176.76 198.391 176.308 198.044 176.432 198.214C176.686 198.495 176.961 198.757 177.254 198.997C177.601 199.341 177.941 199.69 178.278 200.043C179.024 200.819 179.75 201.608 180.475 202.401C182.116 204.199 183.728 206.025 185.376 207.814C186.799 209.355 189.095 207.05 187.676 205.513L187.677 205.514Z" fill="#211715"/>
<path d="M202.625 201.528C203.584 200.85 204.601 200.258 205.664 199.76C206.385 199.425 207.473 198.888 208.293 199.122C208.974 199.315 209.22 200.206 209.269 200.831C209.254 201.929 208.923 202.999 208.316 203.913C207.8 204.691 207.199 205.409 206.522 206.052C205.802 206.821 205.125 207.626 204.456 208.44C203.171 210.168 201.661 211.716 199.966 213.043C199.602 213.269 199.339 213.625 199.23 214.039C199.122 214.453 199.176 214.893 199.383 215.268C199.603 215.638 199.96 215.907 200.376 216.016C200.792 216.125 201.235 216.066 201.608 215.852C203.947 214.195 205.642 212.049 207.47 209.879C208.275 208.924 209.16 208.045 209.972 207.1C210.932 205.987 211.664 204.695 212.127 203.299C213.024 200.631 212.275 196.847 209.193 196.003C206.404 195.238 203.17 197.187 200.983 198.722C200.619 198.947 200.355 199.304 200.247 199.718C200.138 200.132 200.193 200.572 200.399 200.947C200.62 201.317 200.976 201.585 201.393 201.694C201.809 201.804 202.251 201.745 202.625 201.531V201.528Z" fill="#211715"/>
<path d="M132.292 89.4863C134.426 90.5883 136.803 91.1371 139.204 91.0823C141.665 91.0668 144.169 90.5896 146.142 89.0492C146.444 88.743 146.614 88.3297 146.614 87.8991C146.614 87.4684 146.444 87.0552 146.142 86.749C145.831 86.4539 145.42 86.2893 144.991 86.2893C144.563 86.2893 144.152 86.4539 143.841 86.749C144.323 86.3742 143.909 86.69 143.783 86.7693C143.643 86.8595 143.498 86.9428 143.349 87.0208C143.247 87.0743 142.739 87.2871 143.146 87.1319C142.947 87.2078 142.75 87.2844 142.548 87.3494C141.397 87.7161 140.189 87.8767 138.981 87.8239C137.83 87.8557 136.68 87.701 135.578 87.3657C135.359 87.2979 135.146 87.222 134.929 87.1475C134.862 87.1238 134.794 87.0872 134.721 87.0662C135.121 87.1834 134.837 87.1183 134.73 87.0662C134.462 86.9401 134.197 86.808 133.936 86.6697C133.561 86.4612 133.12 86.4055 132.706 86.5142C132.291 86.623 131.934 86.8877 131.71 87.2532C131.497 87.6268 131.439 88.069 131.548 88.485C131.657 88.9011 131.925 89.2578 132.294 89.4789L132.292 89.4863Z" fill="#211715"/>
<path d="M138.466 73.0868C138.789 74.2525 139.048 75.4351 139.241 76.6292L139.183 76.1968C139.206 76.3587 139.21 76.5226 139.196 76.6855L139.254 76.2531C139.243 76.3281 139.225 76.4018 139.2 76.4733L139.364 76.0843C139.343 76.1337 139.317 76.1811 139.286 76.226L139.541 75.8966C139.507 75.9389 139.468 75.9773 139.425 76.0111L139.754 75.7563C139.664 75.8124 139.571 75.8622 139.474 75.9054L139.863 75.7414C139.71 75.8054 139.551 75.851 139.388 75.8769L139.821 75.8187C139.673 75.8366 139.524 75.8366 139.377 75.8187L139.809 75.8769C139.642 75.8539 139.478 75.8132 139.31 75.7902C138.886 75.6916 138.441 75.7498 138.056 75.9542C137.872 76.062 137.71 76.2051 137.581 76.3753C137.452 76.5455 137.358 76.7394 137.304 76.9461C137.249 77.1528 137.236 77.3681 137.265 77.5798C137.295 77.7915 137.365 77.9954 137.473 78.1798C137.576 78.3634 137.716 78.524 137.883 78.6522C138.05 78.7803 138.241 78.8732 138.445 78.9253C138.809 78.9741 139.162 79.0676 139.53 79.0839C140.079 79.0875 140.621 78.9595 141.111 78.7105C141.418 78.5736 141.69 78.3693 141.907 78.1126C142.125 77.856 142.281 77.5538 142.365 77.2283C142.476 76.6939 142.471 76.1419 142.348 75.6099C142.156 74.4693 141.892 73.3382 141.599 72.2213C141.484 71.8053 141.209 71.4519 140.834 71.2388C140.458 71.0257 140.014 70.9704 139.598 71.0851C139.182 71.1998 138.828 71.475 138.615 71.8503C138.402 72.2255 138.347 72.6701 138.462 73.0861L138.466 73.0868Z" fill="#211715"/>
<path d="M119.553 63.1052C118.962 65.0279 119.35 69.45 122.989 69.8261C127.801 69.7977 128.059 64.4511 126.439 61.9375C125.112 59.8792 121.21 59.0233 119.553 63.1052Z" fill="#211715"/>
<path d="M158.1 63.1059C158.692 65.0279 158.303 69.45 154.664 69.8262C149.852 69.7977 149.594 64.4512 151.214 61.9368C152.541 59.8793 156.442 59.0233 158.1 63.1059Z" fill="#211715"/>
</svg>
