<svg width="347" height="347" viewBox="0 0 347 347" fill="none" xmlns="http://www.w3.org/2000/svg">
<path d="M250.009 134.287C246.657 130.679 244.13 126.387 242.601 121.706C241.406 125.423 240.764 129.295 240.696 133.198C240.11 138.802 239.318 146.577 233.973 148.977C232.897 149.412 231.995 150.192 231.41 151.195C229.972 153.898 232.286 155.332 233.657 157.053C234.518 158.161 235.096 159.462 235.342 160.843C235.311 163.579 235.491 166.313 235.879 169.022C236.117 170.929 236.595 172.798 237.304 174.584C238.305 177.184 240.276 179.294 242.802 180.47C246.938 182.342 252.715 183.331 256.558 182.593C257.005 182.51 257.468 182.592 257.858 182.825C258.249 183.058 258.542 183.425 258.682 183.858C259.686 185.881 260.552 187.972 261.272 190.113L263.332 196.165C267.799 192.946 272.77 190.493 278.041 188.905C283.055 187.549 288.14 186.478 293.274 185.695C293.103 184.804 293.015 183.898 293.01 182.991C293.026 182.386 293.079 181.671 293.154 180.902L292.919 180.855C289.124 180.096 282.94 177.938 280.62 175.43C278.258 172.541 276.618 169.13 275.837 165.481C275.837 165.481 275.837 164.741 275.843 163.807C277.362 162.736 278.644 161.363 279.609 159.774C280.574 158.185 281.2 156.414 281.45 154.572C281.844 152.281 281.34 149.375 279.666 147.813C279.066 147.291 278.359 146.909 277.594 146.694C276.829 146.479 276.026 146.436 275.243 146.57C274.353 146.677 273.498 146.982 272.741 147.46C269.038 145.348 265.777 142.543 263.135 139.198C260.224 139.198 255.712 139.198 255.712 139.198C253.632 137.781 251.719 136.133 250.009 134.287Z" fill="white"/>
<path d="M83.9566 201.048C83.8474 200.951 83.7407 200.851 83.6364 200.748C81.6171 198.749 78.9264 196.092 77.3995 194.498C77.016 194.127 76.7538 193.649 76.6472 193.126C76.5406 192.603 76.5946 192.061 76.8022 191.569C77.259 189.735 78.1653 186.163 78.5032 184.703C96.0916 183.659 114.255 182.571 130.881 181.557L130.872 181.584L129.348 187.482C129.251 187.855 129.266 188.249 129.392 188.614C129.517 188.979 129.748 189.298 130.054 189.533C132.945 191.746 136.123 194.176 138.018 195.777C139.229 196.749 139.109 199.709 137.063 199.903C134.996 200.1 106.457 201.912 89.777 203.037C88.7234 203.108 87.6662 202.969 86.6669 202.627C85.6676 202.286 84.7463 201.749 83.9566 201.048Z" fill="white"/>
<path d="M129.066 181.086C128.59 182.931 128.09 184.772 127.635 186.623C127.395 187.36 127.371 188.15 127.565 188.899C127.759 189.649 128.163 190.328 128.73 190.856C130.436 192.365 132.388 193.651 134.178 195.063C134.949 195.67 135.722 196.275 136.469 196.911C136.932 197.304 136.907 197.24 136.918 197.794C136.918 198.024 136.692 198.098 136.918 198.045C137.145 197.992 136.638 198.065 136.536 198.072C134.944 198.196 133.352 198.296 131.766 198.403C118.326 199.301 104.884 200.149 91.4453 201.05C89.3182 201.192 87.3194 201.307 85.5238 199.931C83.7373 198.392 82.0547 196.736 80.487 194.974C79.7668 194.41 79.1268 193.751 78.5847 193.014C78.3038 192.446 78.7598 191.457 78.9086 190.866C79.3842 188.968 79.8729 187.073 80.3129 185.167C80.8587 182.826 77.2497 181.821 76.702 184.171C76.2938 185.925 75.8454 187.669 75.4072 189.414C74.9185 191.363 74.2547 193.371 75.5383 195.169C76.8821 196.809 78.3585 198.337 79.9525 199.736C81.544 201.322 83.071 203.098 85.1652 204.03C87.2064 204.821 89.415 205.08 91.5838 204.784C93.3813 204.663 95.1788 204.543 96.9763 204.425C100.888 204.166 104.799 203.909 108.711 203.655C115.787 203.192 122.864 202.729 129.943 202.266C131.977 202.131 134.012 201.999 136.047 201.852C136.715 201.844 137.38 201.76 138.029 201.602C138.86 201.293 139.567 200.72 140.041 199.971C140.515 199.222 140.731 198.338 140.656 197.455C140.562 195.183 138.897 194.059 137.27 192.767C136.199 191.917 135.117 191.081 134.036 190.245C133.474 189.809 132.91 189.375 132.344 188.946C132.08 188.743 131.204 188.24 131.148 187.957C131.19 187.704 131.257 187.455 131.347 187.214L131.854 185.248L132.674 182.079C133.278 179.745 129.667 178.749 129.063 181.084L129.066 181.086Z" fill="#211715"/>
<path d="M181.63 67.3212C155.289 67.8464 57.6868 69.9051 23.4284 70.6784C22.4166 70.7 21.4535 71.1173 20.7459 71.8409C20.0382 72.5645 19.6424 73.5366 19.6434 74.5487C19.6434 92.1343 19.6434 165.799 19.6434 184.093C19.6437 184.622 19.7525 185.145 19.9629 185.631C20.1734 186.117 20.4811 186.554 20.867 186.916C21.253 187.278 21.709 187.558 22.207 187.737C22.705 187.916 23.2344 187.991 23.7627 187.958C69.6702 185.228 149.901 180.514 181.967 178.327C182.946 178.261 183.863 177.826 184.533 177.109C185.202 176.392 185.574 175.447 185.573 174.466C185.573 157.818 185.579 88.5533 185.58 71.1924C185.581 70.6771 185.479 70.1669 185.279 69.6917C185.08 69.2166 184.788 68.786 184.42 68.4254C184.052 68.0647 183.615 67.7813 183.136 67.5917C182.657 67.4021 182.145 67.3101 181.63 67.3212Z" fill="white"/>
<path d="M181.629 65.449C175.381 65.5738 169.133 65.7014 162.884 65.8319C153.876 66.0191 144.868 66.2063 135.861 66.3936C125.331 66.6133 114.802 66.8352 104.271 67.0592C93.6135 67.2845 82.9552 67.5114 72.2962 67.7398C62.747 67.9439 53.2012 68.1499 43.6588 68.3577C39.6887 68.4439 35.7185 68.5309 31.7484 68.6189L26.7192 68.7303C24.7943 68.7734 22.6252 68.5525 20.8698 69.4531C17.1362 71.3676 17.771 75.7387 17.771 79.2467V89.2509C17.771 98.3383 17.771 107.426 17.771 116.514V146.834C17.771 155.522 17.771 164.21 17.771 172.899C17.771 175.926 17.771 178.953 17.771 181.98C17.771 183.822 17.6474 185.713 18.7624 187.309C19.633 188.577 20.9715 189.448 22.4838 189.73C23.764 189.862 25.0554 189.845 26.3316 189.677C37.1066 189.037 47.8817 188.397 58.6567 187.759C70.7649 187.04 82.8731 186.319 94.9813 185.595C107.066 184.871 119.151 184.142 131.236 183.407C141.769 182.765 152.302 182.112 162.833 181.448C167.077 181.178 171.324 180.904 175.574 180.626C177.39 180.507 179.205 180.386 181.021 180.263C182.289 180.275 183.541 179.974 184.666 179.386C185.324 178.985 185.896 178.456 186.348 177.83C186.799 177.205 187.122 176.496 187.296 175.745C187.497 174.328 187.547 172.895 187.446 171.468V167.171C187.446 163.426 187.446 159.678 187.446 155.928C187.446 146.391 187.446 136.854 187.446 127.317C187.446 117.354 187.446 107.392 187.446 97.4286C187.446 89.8192 187.446 82.2094 187.446 74.5994C187.446 73.4656 187.487 72.3244 187.446 71.1916C187.418 69.6633 186.794 68.2066 185.706 67.1332C184.617 66.0597 183.152 65.4549 181.624 65.448C179.213 65.3975 179.213 69.1423 181.624 69.1928C183.72 69.2368 183.701 71.1392 183.701 72.7111V76.6431C183.701 80.1514 183.701 83.659 183.701 87.166C183.701 96.2871 183.701 105.408 183.701 114.529C183.701 124.404 183.701 134.279 183.701 144.154C183.701 152.068 183.701 159.981 183.701 167.895V172.051C183.701 173.197 184.006 174.87 183.206 175.787C182.563 176.524 181.627 176.481 180.732 176.542L178.129 176.717C176.264 176.842 174.399 176.965 172.532 177.085C163.117 177.699 153.7 178.292 144.281 178.864C132.956 179.563 121.63 180.252 110.304 180.932C98.2883 181.655 86.2712 182.373 74.2529 183.085C62.9785 183.757 51.7032 184.426 40.427 185.094L25.3785 185.988C24.3824 186.047 23.1607 186.34 22.2994 185.686C22.0022 185.424 21.7752 185.091 21.6387 184.719C21.5022 184.346 21.4606 183.946 21.5176 183.553V179.89C21.5176 172.552 21.5176 165.213 21.5176 157.873C21.5176 148.218 21.5176 138.563 21.5176 128.907V100.207C21.5176 92.9605 21.5176 85.7136 21.5176 78.4668C21.5176 77.2938 21.512 76.1207 21.5176 74.9486C21.4713 74.5626 21.5258 74.1713 21.676 73.8127C21.8261 73.4542 22.0667 73.1407 22.3743 72.903C23.1203 72.5453 23.9543 72.4122 24.7747 72.5201C28.1163 72.4452 31.4579 72.3712 34.7995 72.2982C43.4332 72.111 52.0662 71.9237 60.6986 71.7365C70.827 71.5187 80.9561 71.3021 91.0858 71.0868C101.597 70.8627 112.109 70.6402 122.62 70.4192C132.208 70.217 141.797 70.016 151.385 69.8163C158.931 69.659 166.478 69.503 174.025 69.3482L181.631 69.1947C184.036 69.146 184.044 65.4012 181.629 65.449Z" fill="#211715"/>
<path d="M129.664 166.784C108.88 167.969 84.2356 169.383 59.2812 170.859C62.7507 155.418 66.357 137.437 69.6552 124.876C70.2999 122.536 71.4738 120.375 73.0864 118.56C74.65 116.724 76.5781 115.233 78.7485 114.181C82.2668 112.473 87.0564 110.644 90.0672 109.032C95.1105 113.526 104.458 117.399 110.149 117.57C115.689 117.756 121.202 116.716 126.293 114.523C128.042 113.775 132.183 110.847 133.123 109.289C137.646 110.228 141.94 112.046 145.762 114.64C147.207 115.559 148.472 116.736 149.493 118.111C150.6 119.732 151.566 121.444 152.38 123.23C154.72 130.252 159.382 154.883 159.382 162.343C159.382 162.343 159.382 163.383 159.382 165.091C150.973 165.572 140.879 166.145 129.664 166.784Z" fill="#7ABEE6"/>
<path d="M92.3674 105.779C87.6499 105.177 82.6066 102.591 80.8053 99.3196C78.4377 95.0178 78.3272 89.5897 79.3879 84.8085C80.4486 80.0273 82.249 75.3941 82.8004 70.5305C83.0812 68.0608 83.0344 65.5584 83.4145 63.1008C83.789 60.6667 84.5548 40.3568 99.6998 35.9604C103.538 34.5991 107.322 33.2164 111.388 33.5019C113.686 33.5656 115.972 33.8512 118.214 34.3548C123.186 35.8845 127.091 37.9741 130.497 41.8594C132.795 44.4842 134.616 47.4899 135.88 50.7411C139.448 60.6517 141.528 71.036 142.053 81.5561C142.377 84.999 142.198 88.4708 141.52 91.8618C140.732 95.2247 139.05 98.8468 136.317 101.007C132.242 104.228 130.372 104.971 125.151 105.154L92.3674 105.779Z" fill="#957F6E"/>
<path d="M89.2143 84.1915L89.9343 84.302C90.7908 87.4786 92.3091 90.4384 94.3896 92.9871C96.3873 95.5006 98.9748 97.4819 101.922 98.7551C101.838 99.9635 101.563 101.151 101.11 102.274C100.8 103.143 100.314 103.937 99.6822 104.609C99.0507 105.281 98.2873 105.815 97.4398 106.178C96.3725 106.628 91.0174 108.874 90.5025 109.034L90.1749 109.135C95.2406 113.586 104.492 117.406 110.142 117.575C115.685 117.761 121.2 116.719 126.293 114.523C127.988 113.799 131.928 111.027 133.028 109.442C131.289 108.751 129.619 107.9 128.039 106.899C127.405 106.469 126.835 105.952 126.344 105.364C125.444 104.256 124.839 102.939 124.584 101.535C124.325 99.9939 124.159 98.4388 124.088 96.878C126.637 94.8676 128.824 92.4359 130.553 89.688L132.59 86.547C133.457 79.4495 132.152 72.256 128.846 65.916C126.936 61.9637 124.135 58.5084 120.664 55.8218C117.107 53.1537 112.673 50.1569 107.422 51.4498C106.032 53.1209 91.1092 67.588 89.1965 69.085L88.0647 69.9697C87.7025 69.6991 87.2904 69.5027 86.8522 69.3916C86.4139 69.2806 85.958 69.2572 85.5107 69.3228C85.031 69.3899 84.5724 69.5638 84.1688 69.8316C83.7652 70.0994 83.4269 70.4544 83.1786 70.8703C82.8914 71.4447 82.7284 72.0731 82.7002 72.7146C82.4922 75.2238 82.978 77.7419 84.1045 79.9936C84.636 81.1313 85.4066 82.1409 86.3636 82.9539C87.1413 83.5834 88.069 84.0005 89.0561 84.1644L89.2143 84.1915Z" fill="white"/>
<path d="M120.079 100.884C122.765 100.14 125.211 98.7078 127.173 96.7282C129.077 94.9038 130.755 92.8569 132.17 90.6317C132.417 90.202 132.484 89.6925 132.359 89.2133C132.233 88.7341 131.924 88.3235 131.498 88.0702C131.067 87.8306 130.56 87.7666 130.082 87.8916C129.605 88.0167 129.195 88.3211 128.936 88.7415C128.639 89.1965 128.333 89.6449 128.018 90.0868C127.851 90.3209 127.68 90.5527 127.506 90.7824C127.412 90.9041 127.292 91.0558 127.455 90.8498C127.354 90.9771 127.253 91.1054 127.151 91.2327C126.378 92.1969 125.542 93.1091 124.649 93.9636C124.198 94.3924 123.728 94.7997 123.245 95.19C122.977 95.4044 123.329 95.1376 123.157 95.2556C123.043 95.3342 122.933 95.4204 122.819 95.5009C122.55 95.6918 122.274 95.8741 121.992 96.0476C121.507 96.3387 121.007 96.6037 120.494 96.8415C120.292 96.9351 120.763 96.7479 120.428 96.8649C120.28 96.9164 120.134 96.9744 119.984 97.0241C119.689 97.1177 119.389 97.2029 119.086 97.2731C118.609 97.4083 118.204 97.7255 117.959 98.1563C117.714 98.5871 117.648 99.0971 117.775 99.5761C117.916 100.05 118.234 100.451 118.663 100.695C119.093 100.939 119.6 101.008 120.079 100.887V100.884Z" fill="#211715"/>
<path d="M89.5794 68.7996C88.6773 67.9939 87.5282 67.5186 86.3205 67.4516C85.1128 67.3845 83.9182 67.7298 82.9324 68.4307C80.8484 69.9867 80.6116 72.6998 80.84 75.1161C81.2632 79.5828 83.6252 85.0914 88.5608 85.9761C89.0395 86.0939 89.5452 86.0237 89.9736 85.7798C90.4021 85.536 90.7207 85.1371 90.8639 84.6654C90.9918 84.1863 90.9259 83.6761 90.6807 83.2452C90.4354 82.8142 90.0304 82.4971 89.5532 82.3623C86.5649 81.8278 85.2261 78.6409 84.7037 75.9409C84.5732 75.2308 84.5127 74.5096 84.523 73.7877C84.4633 73.1208 84.5539 72.449 84.788 71.8217C84.9032 71.6553 85.0505 71.5137 85.2212 71.405C85.3919 71.2963 85.5826 71.2227 85.7821 71.1887C85.9815 71.1546 86.1858 71.1606 86.3829 71.2065C86.58 71.2523 86.766 71.337 86.93 71.4556C87.2876 71.7946 87.7615 71.9835 88.2542 71.9835C88.747 71.9835 89.2209 71.7946 89.5785 71.4556C89.9259 71.1026 90.1206 70.6271 90.1206 70.1318C90.1206 69.6365 89.9259 69.1611 89.5785 68.808L89.5794 68.7996Z" fill="#211715"/>
<path d="M87.3869 81.5046C88.1305 86.252 90.1271 90.7151 93.1707 94.4336C96.3057 98.3766 100.852 100.945 105.848 101.594C106.343 101.591 106.818 101.392 107.169 101.042C107.519 100.691 107.717 100.217 107.72 99.7212C107.709 99.2281 107.508 98.7582 107.16 98.4094C106.811 98.0606 106.341 97.8598 105.848 97.8488C101.685 97.4023 98.1803 94.6845 95.6086 91.5341C93.1552 88.3149 91.5681 84.5205 90.9987 80.5132C90.864 80.036 90.5468 79.631 90.1159 79.3857C89.6849 79.1405 89.1747 79.0746 88.6957 79.2025C88.2225 79.3435 87.822 79.6617 87.5778 80.0908C87.3336 80.5199 87.2645 81.0267 87.385 81.5056L87.3869 81.5046Z" fill="#211715"/>
<path d="M106.094 50.1251C104.216 52.3598 101.963 54.338 99.8795 56.3799C96.864 59.3289 93.8326 62.262 90.7562 65.1464C89.8135 66.0302 88.8838 66.957 87.8699 67.7594C87.5216 68.1121 87.3262 68.5879 87.3262 69.0836C87.3262 69.5794 87.5216 70.0552 87.8699 70.4079C88.2268 70.7479 88.7008 70.9375 89.1937 70.9375C89.6866 70.9375 90.1606 70.7479 90.5175 70.4079C92.858 68.5589 94.9579 66.3382 97.1065 64.2776C100.138 61.3754 103.154 58.4451 106.126 55.4774C107.009 54.5955 107.938 53.7304 108.747 52.7745C109.086 52.4171 109.275 51.9431 109.275 51.4503C109.275 50.9575 109.086 50.4835 108.747 50.126C108.394 49.7788 107.918 49.5842 107.423 49.5842C106.928 49.5842 106.452 49.7788 106.099 50.126L106.094 50.1251Z" fill="#211715"/>
<path d="M107.916 53.2549C111.641 52.4123 115.023 54.1255 118.011 56.2001C121.057 58.2671 123.65 60.9327 125.633 64.0343C129.697 70.4145 131.53 77.9629 130.844 85.4967C130.345 89.8931 128.866 94.1213 126.514 97.8695C125.251 99.9291 128.489 101.813 129.748 99.7588C134.363 92.1763 135.844 83.0949 133.877 74.4392C132.174 66.0012 127.4 58.4952 120.481 53.3747C116.462 50.4931 111.929 48.5065 106.918 49.6411C104.568 50.1729 105.562 53.7838 107.913 53.2521L107.916 53.2549Z" fill="#211715"/>
<path d="M92.8646 103.973C89.6541 103.635 86.6092 102.378 84.0942 100.354C81.7603 98.2944 80.8746 95.0655 80.6696 92.0453C80.1594 84.4948 83.9772 77.5173 84.7196 70.0923C84.9743 67.5346 85.0941 64.9713 85.3684 62.4155C85.4199 61.9343 85.4676 61.4521 85.5229 60.97C85.5575 60.6723 85.594 60.3746 85.6305 60.0769C85.6774 59.7024 85.6305 60.0872 85.6437 59.9701C85.6736 59.7548 85.7048 59.5401 85.7373 59.326C86.2171 55.6658 87.1984 52.0891 88.6535 48.6964C90.4417 44.7644 93.0874 41.2115 96.9352 39.1041C97.9339 38.5752 98.9798 38.1408 100.059 37.8065C101.887 37.2073 103.679 36.5136 105.542 36.0277C108.904 35.2443 112.39 35.1488 115.79 35.7469C118.937 36.2848 121.938 37.4687 124.604 39.2239C127.27 40.979 129.544 43.2674 131.283 45.9449C133.257 49.1008 134.762 52.5273 135.749 56.1167C136.891 59.8442 137.811 63.6363 138.504 67.4728C139.188 71.213 139.668 74.984 139.982 78.7728C140.302 82.6337 140.637 86.6481 139.905 90.4819C139.428 93.6708 137.991 96.6389 135.786 98.991C133.984 100.812 131.743 102.136 129.278 102.834C127.923 103.118 126.543 103.267 125.159 103.28C122.757 103.373 122.745 107.118 125.159 107.025C128.364 107.099 131.531 106.316 134.332 104.755C137.132 103.193 139.464 100.911 141.085 98.1456C145.177 90.9518 144.199 82.1366 143.267 74.264C142.421 65.9161 140.494 57.7134 137.534 49.862C136.223 46.3574 134.229 43.1482 131.667 40.4208C129.105 37.6933 126.027 35.5019 122.611 33.9737C121.015 33.2439 119.347 32.6792 117.636 32.2885C115.88 31.9758 114.106 31.7773 112.324 31.6941C108.262 31.5367 104.211 32.227 100.429 33.7209C97.6904 34.5218 95.097 35.7543 92.7466 37.3721C90.7016 38.9378 88.935 40.8368 87.5207 42.9893C85.1002 46.8197 83.4353 51.078 82.616 55.5344C82.264 57.2477 82.0093 58.9796 81.8052 60.7163C81.7434 61.2415 81.6891 61.7676 81.633 62.2938C81.6142 62.4735 81.5871 62.6542 81.5749 62.8349C81.5496 63.1832 81.6189 62.5344 81.6086 62.5878C81.5056 63.1139 81.456 63.6616 81.397 64.1952C81.1639 66.3035 81.1714 68.4315 80.9289 70.538C80.6512 72.5817 80.2244 74.6024 79.652 76.584C78.5903 80.516 77.2918 84.4087 76.9585 88.4962C76.5785 92.3586 77.2581 96.2516 78.9245 99.7568C80.4674 102.846 83.5054 104.85 86.6089 106.144C88.2939 106.853 90.0637 107.341 91.8741 107.595C92.3526 107.71 92.857 107.638 93.2848 107.395C93.7126 107.151 94.0316 106.754 94.1771 106.284C94.3058 105.805 94.2403 105.294 93.995 104.863C93.7496 104.432 93.3441 104.114 92.8664 103.98L92.8646 103.973Z" fill="#211715"/>
<path d="M107.933 89.1038C109.384 89.8576 111.001 90.2349 112.636 90.2011C114.373 90.2645 116.081 89.7441 117.487 88.7228C117.643 88.5663 117.767 88.3805 117.852 88.176C117.937 87.9715 117.98 87.7523 117.98 87.531C117.977 87.0847 117.8 86.6572 117.487 86.3392C117.164 86.0356 116.738 85.8665 116.295 85.8665C115.852 85.8665 115.426 86.0356 115.103 86.3392C115.688 85.8833 115.11 86.3121 114.925 86.4085C114.784 86.4834 114.411 86.6023 114.952 86.4085C114.826 86.4525 114.702 86.5021 114.578 86.5461C114.232 86.6575 113.864 86.6847 113.52 86.7886C113.693 86.7362 113.82 86.753 113.561 86.7783C113.457 86.7886 113.353 86.797 113.249 86.8045C112.999 86.8204 112.749 86.827 112.5 86.8261C112.276 86.8261 112.051 86.8167 111.826 86.8017C111.723 86.7952 111.62 86.7867 111.518 86.7764L111.342 86.7577L111.511 86.7802C111.445 86.7137 111.104 86.7081 111.004 86.6866C110.842 86.651 110.681 86.6095 110.522 86.562C110.384 86.5209 110.247 86.475 110.112 86.4244C110.067 86.4076 110.024 86.3888 109.979 86.3729C109.71 86.2793 110.383 86.5602 110.143 86.4403C109.975 86.3561 109.806 86.2774 109.64 86.1904C109.254 85.9648 108.795 85.9017 108.362 86.0151C107.93 86.1284 107.561 86.4088 107.335 86.7947C107.109 87.1805 107.046 87.6402 107.16 88.0725C107.273 88.5049 107.553 88.8745 107.939 89.1001L107.933 89.1038Z" fill="#211715"/>
<path d="M111.53 78.3375C111.734 79.0747 111.898 79.8226 112.02 80.5779L111.96 80.1294C111.975 80.2318 111.978 80.3354 111.969 80.4384L112.029 79.9909C112.022 80.0383 112.011 80.0851 111.995 80.1304L112.165 79.7278C112.151 79.7603 112.135 79.7916 112.116 79.8214L112.38 79.4806C112.358 79.5072 112.333 79.5314 112.307 79.5527L112.647 79.2887C112.59 79.3241 112.531 79.3554 112.47 79.3823L112.872 79.2119C112.777 79.2534 112.676 79.2829 112.573 79.2999L113.021 79.24C112.928 79.2513 112.833 79.2513 112.74 79.24L113.188 79.3009C112.932 79.2653 112.681 79.2204 112.424 79.1857C111.981 79.2041 111.559 79.3789 111.233 79.6791C111.076 79.8356 110.952 80.0214 110.867 80.2259C110.783 80.4304 110.739 80.6495 110.739 80.8709C110.739 81.0922 110.783 81.3114 110.867 81.5159C110.952 81.7204 111.076 81.9062 111.233 82.0627L111.574 82.3257C111.831 82.4769 112.125 82.5564 112.424 82.5561H112.451L112.002 82.4952C112.289 82.5568 112.58 82.5972 112.873 82.616C113.343 82.6107 113.804 82.4909 114.216 82.2668C114.479 82.1328 114.71 81.9432 114.892 81.7112C115.074 81.4792 115.204 81.2104 115.272 80.9233C115.36 80.475 115.353 80.013 115.25 79.5677C115.125 78.8524 114.962 78.1437 114.782 77.4416C114.723 77.2282 114.623 77.0285 114.487 76.8539C114.351 76.6792 114.182 76.5331 113.989 76.4238C113.797 76.3145 113.585 76.2442 113.365 76.217C113.145 76.1897 112.923 76.2059 112.709 76.2648C112.286 76.3834 111.925 76.6608 111.702 77.039C111.481 77.4342 111.421 77.899 111.532 78.3375H111.53Z" fill="#211715"/>
<path d="M100.08 71.7992C99.6876 73.0752 99.946 76.0121 102.364 76.2602C105.56 76.2386 105.728 72.6886 104.651 71.0175C103.768 69.6534 101.176 69.0917 100.08 71.7992Z" fill="#211715"/>
<path d="M124.694 71.7823C125.088 73.0593 124.834 75.9952 122.416 76.247C119.22 76.2302 119.045 72.6801 120.121 71.0099C121.001 69.6421 123.592 69.0729 124.694 71.7823Z" fill="#211715"/>
<path d="M89.1198 107.42C84.9069 109.637 80.1697 110.955 76.1365 113.486C71.9277 116.126 68.8937 120.282 67.6611 125.095C65.0145 135.333 63.0681 145.742 60.8793 156.083C60.1531 158.773 59.6697 161.523 59.4347 164.299C59.372 166.511 59.5611 169.23 60.9401 171.065C61.201 171.483 61.6114 171.785 62.0875 171.91C62.5636 172.035 63.0693 171.973 63.5016 171.738C63.9278 171.485 64.2373 171.074 64.3631 170.594C64.4889 170.115 64.4209 169.605 64.1737 169.175C63.1655 167.834 63.1336 165.91 63.1795 164.299C63.3815 162.009 63.7889 159.743 64.3966 157.526C65.4798 152.419 66.5189 147.303 67.5937 142.194C68.5739 137.54 69.5803 132.89 70.7215 128.272C71.1283 126.078 71.8637 123.958 72.9029 121.983C74.0112 120.125 75.4875 118.513 77.2412 117.246C79.3939 115.871 81.6844 114.724 84.0755 113.825C86.4076 112.815 88.764 111.84 91.0146 110.655C93.1473 109.532 91.2571 106.298 89.1244 107.422L89.1198 107.42Z" fill="#211715"/>
<path d="M81.8642 169.644C82.8669 158.581 83.5259 147.489 83.9894 136.39C84.0905 133.981 80.3447 133.985 80.2446 136.39C79.7811 147.489 79.1211 158.578 78.1194 169.644C78.1231 170.14 78.3215 170.614 78.6719 170.964C79.0222 171.314 79.4963 171.513 79.9918 171.517C80.4852 171.506 80.9555 171.306 81.3044 170.957C81.6533 170.608 81.8539 170.138 81.8642 169.644Z" fill="#211715"/>
<path d="M143.1 166.622C145.464 155.278 146.489 143.695 146.153 132.112C146.06 129.711 142.315 129.698 142.408 132.112C142.751 143.36 141.771 154.609 139.489 165.628C139.021 167.983 142.635 168.99 143.1 166.624V166.622Z" fill="#211715"/>
<path d="M132.626 111.095C135.447 111.7 138.186 112.639 140.786 113.892C143.243 115.125 145.928 116.607 147.672 118.789C149.59 121.26 150.922 124.135 151.567 127.196C153.589 135.273 155.201 143.448 156.395 151.688C157.025 155.208 157.398 158.769 157.509 162.343C157.519 164.752 161.263 164.757 161.254 162.343C161.145 158.894 160.796 155.458 160.208 152.058C159.561 147.596 158.782 143.152 157.924 138.726C157.131 134.635 156.285 130.548 155.257 126.509C154.953 125.183 154.578 123.874 154.133 122.588C153.375 120.71 152.389 118.932 151.199 117.293C149.252 114.494 146.317 112.576 143.344 111.003C140.269 109.414 137.001 108.231 133.621 107.484C131.281 106.939 130.275 110.549 132.626 111.095Z" fill="#211715"/>
<path d="M131.506 108.345C130.551 109.817 128.037 111.445 126.289 112.428C123.417 113.884 120.321 114.845 117.13 115.272C114.127 115.846 111.05 115.917 108.024 115.481C105.193 114.956 102.438 114.082 99.8214 112.88C96.7708 111.583 93.9289 109.842 91.3881 107.713C89.5841 106.128 86.9253 108.766 88.7406 110.36C93.7731 114.653 99.807 117.607 106.284 118.95C109.792 119.594 113.384 119.633 116.905 119.066C120.641 118.61 124.279 117.552 127.676 115.933C129.033 115.213 130.318 114.366 131.515 113.405C132.76 112.54 133.85 111.469 134.737 110.239C136.048 108.211 132.811 106.332 131.503 108.349L131.506 108.345Z" fill="#211715"/>
<path d="M103.297 46.0489C103.786 46.8615 104.196 47.7201 104.518 48.6123L104.331 48.1648C104.767 49.2021 105.194 50.2506 105.526 51.3272C105.591 51.5643 105.703 51.7862 105.854 51.9803C106.005 52.1743 106.193 52.3366 106.407 52.458C106.621 52.5794 106.856 52.6575 107.1 52.6878C107.344 52.7181 107.592 52.7001 107.829 52.6347C108.066 52.5692 108.288 52.4578 108.482 52.3066C108.676 52.1555 108.839 51.9676 108.96 51.7537C109.081 51.5398 109.16 51.304 109.19 51.06C109.22 50.8159 109.202 50.5682 109.137 50.3311C108.733 49.0937 108.266 47.8776 107.739 46.6874C107.42 45.8076 107.015 44.961 106.531 44.1597C106.274 43.7455 105.875 43.4395 105.408 43.2993C105.049 43.2003 104.668 43.2106 104.315 43.3289C103.962 43.4472 103.652 43.6681 103.425 43.9633C103.198 44.2586 103.065 44.6149 103.041 44.9866C103.018 45.3582 103.106 45.7284 103.294 46.0499L103.297 46.0489Z" fill="#211715"/>
<path d="M133.132 107.482C133.389 107.587 133.125 107.482 133.01 107.426C132.865 107.363 132.721 107.297 132.576 107.232C132.303 107.107 132.031 106.977 131.762 106.842C131.185 106.561 130.615 106.258 130.057 105.94C129.078 105.45 128.221 104.746 127.551 103.88C127.366 103.615 127.199 103.338 127.05 103.051C126.969 102.898 126.891 102.743 126.822 102.582C126.897 102.757 126.804 102.524 126.786 102.474C126.59 101.904 126.438 101.321 126.33 100.729C126.231 100.171 126.163 99.6086 126.125 99.0436C126.061 98.2825 126.013 97.5195 125.951 96.7574C125.951 96.2608 125.754 95.7846 125.402 95.4334C125.051 95.0823 124.575 94.885 124.078 94.885C123.582 94.885 123.106 95.0823 122.754 95.4334C122.403 95.7846 122.206 96.2608 122.206 96.7574C122.462 99.9171 122.51 103.271 124.447 105.947C126.305 108.513 129.284 109.906 132.137 111.09C132.375 111.155 132.622 111.173 132.867 111.142C133.111 111.112 133.347 111.034 133.561 110.912C133.774 110.79 133.962 110.627 134.113 110.433C134.264 110.239 134.375 110.016 134.44 109.779C134.557 109.3 134.486 108.795 134.243 108.367C133.999 107.939 133.601 107.62 133.13 107.476L133.132 107.482Z" fill="#211715"/>
<path d="M91.0034 110.84C92.6558 110.307 94.2576 109.529 95.8576 108.857C96.7002 108.505 97.5502 108.161 98.3853 107.795C99.922 107.102 101.212 105.96 102.086 104.518C103.086 102.777 103.669 100.827 103.788 98.8216C103.786 98.3257 103.588 97.8508 103.237 97.5001C102.887 97.1494 102.412 96.9514 101.916 96.9492C101.423 96.9616 100.954 97.1628 100.605 97.5113C100.257 97.8598 100.056 98.3289 100.043 98.8216C100.032 98.9611 100.019 99.1025 100.003 99.2392C100.029 99.0825 100.023 99.1203 99.9862 99.3524C99.9404 99.6202 99.8879 99.8861 99.8243 100.151C99.6895 100.713 99.4872 101.236 99.3047 101.779C99.2288 101.966 99.2401 101.941 99.3403 101.699C99.3037 101.781 99.2654 101.863 99.226 101.946C99.1449 102.114 99.0575 102.28 98.9639 102.443C98.8921 102.568 98.816 102.691 98.7355 102.813C98.6812 102.896 98.625 102.977 98.5669 103.057C98.7093 102.88 98.7136 102.874 98.5801 103.038C98.3036 103.366 97.997 103.667 97.6645 103.937C97.964 103.705 97.3892 104.104 97.3302 104.138C97.1317 104.288 96.9105 104.405 96.6749 104.485C97.0316 104.427 96.9342 104.378 96.8013 104.435C96.7198 104.471 96.6374 104.504 96.5551 104.539L95.8997 104.813C94.7301 105.304 93.5592 105.792 92.3871 106.277C91.6016 106.601 90.8171 106.969 90.0073 107.231C89.5284 107.363 89.1216 107.679 88.8764 108.111C88.6311 108.543 88.5674 109.055 88.6994 109.534C88.8314 110.012 89.1481 110.419 89.5801 110.665C90.012 110.91 90.5236 110.973 91.0025 110.842L91.0034 110.84Z" fill="#211715"/>
<path d="M170.586 162.577C156.346 163.399 142.107 164.21 127.866 165.011C108.449 166.118 89.0339 167.239 69.6196 168.374C57.8965 169.06 46.1737 169.758 34.4512 170.467C32.0574 170.611 32.0405 174.357 34.4512 174.212C55.0676 172.964 75.685 171.747 96.3032 170.561C113.936 169.544 131.571 168.535 149.206 167.536C156.334 167.131 163.46 166.724 170.586 166.314C172.982 166.176 172.998 162.43 170.586 162.569V162.577Z" fill="#211715"/>
<path d="M329.838 296.071C331.73 281.897 331.172 240.835 330.013 232.093C329.442 226.714 328.316 221.41 326.652 216.264C322.617 204.825 313.758 195.637 303.277 192.391C300.142 186.873 298.221 185.384 295.61 185.463C292.895 185.547 284.298 187.188 278.04 188.907C272.34 190.476 265.468 194.337 263.018 196.42C261.7 197.538 260.383 200.995 259.648 202.741L258.643 205.135C257.786 205.538 256.916 205.956 256.027 206.39C248 210.31 242.941 214.977 239.183 223.251C234.795 232.914 230.986 250.242 227.871 263.897C226.402 270.64 224.537 277.29 222.286 283.813C222.286 283.813 233.414 299.549 268.676 300.801C303.939 302.054 329.838 296.071 329.838 296.071Z" fill="#B3B3B3"/>
<path d="M1.8724 245.689C13.1667 244.685 24.4685 243.766 35.7704 242.85C50.9012 241.625 66.0343 240.421 81.1695 239.238C97.5081 237.952 113.848 236.674 130.188 235.405C144.746 234.271 159.305 233.135 173.864 231.996C184.007 231.2 194.149 230.391 204.29 229.569L206.651 229.372C209.036 229.171 209.057 225.425 206.651 225.627C197.251 226.419 187.845 227.152 178.44 227.892C164.277 229.006 150.114 230.112 135.949 231.211C119.665 232.48 103.382 233.751 87.0985 235.026C71.6824 236.236 56.2663 237.459 40.8502 238.695C28.922 239.656 16.993 240.623 5.07139 241.662C4.00475 241.755 2.93873 241.849 1.87333 241.943C1.38063 241.955 0.911507 242.157 0.563001 242.505C0.214496 242.854 0.0132661 243.323 0.000930786 243.816C0.00484702 244.311 0.203375 244.785 0.553673 245.135C0.903971 245.486 1.37795 245.684 1.87333 245.688L1.8724 245.689Z" fill="#211715"/>
<path d="M266.079 98.9507C253.577 102.607 247.311 110.862 246.186 112.755C244.533 115.356 243.265 118.182 242.422 121.146C244.684 128.493 249.37 134.856 255.716 139.196C255.716 139.196 260.227 139.196 263.139 139.196C265.781 142.541 269.042 145.346 272.744 147.458C273.502 146.98 274.357 146.676 275.247 146.568C276.03 146.435 276.833 146.477 277.597 146.692C278.362 146.907 279.069 147.289 279.668 147.811C281.343 149.374 281.847 152.279 281.453 154.57C281.203 156.412 280.576 158.183 279.612 159.772C278.647 161.361 277.365 162.734 275.846 163.805C275.84 164.741 275.84 165.479 275.84 165.479C276.621 169.128 278.261 172.539 280.622 175.428C282.942 177.936 289.127 180.094 292.922 180.853L295.532 181.358C297.448 177.362 302.498 173.775 305.505 170.949C310.925 165.858 319.015 155.743 319.708 140.885C319.955 132.929 318.022 125.057 314.117 118.12C305.16 102.569 294.001 99.1726 287.07 97.7805C280.405 96.5338 273.541 96.8446 267.016 98.6886C266.696 98.7735 266.384 98.8608 266.079 98.9507Z" fill="#7A7473"/>
<path d="M272.866 149.677C274.551 148.249 277.492 147.637 278.886 149.795C280.163 151.77 279.744 154.354 279.063 156.454C277.632 160.86 273.901 163.382 269.599 164.587C267.282 165.235 268.265 168.849 270.595 168.199C275.236 166.901 279.545 164.239 281.722 159.792C282.897 157.538 283.485 155.024 283.431 152.483C283.269 149.74 282.142 146.779 279.557 145.461C276.353 143.831 272.834 144.806 270.218 147.027C269.871 147.379 269.676 147.855 269.676 148.35C269.676 148.846 269.871 149.321 270.218 149.674C270.574 150.016 271.049 150.207 271.542 150.207C272.036 150.207 272.51 150.016 272.866 149.674V149.677Z" fill="#211715"/>
<path d="M243.237 140.865C242.48 142.435 242.159 146.28 245.072 147.09C248.999 147.708 249.975 143.158 249.015 140.782C248.23 138.839 245.174 137.584 243.237 140.865Z" fill="#211715"/>
<path d="M263.072 189.616C262.551 188.04 261.938 186.498 261.263 184.981C261.051 184.506 260.833 184.035 260.607 183.567C260.539 183.425 260.476 183.277 260.4 183.14C260.197 182.775 260.65 183.755 260.363 183.075C260.074 182.35 259.567 181.732 258.912 181.307C258.257 180.882 257.486 180.671 256.706 180.704C255.308 180.764 253.979 181.009 252.561 180.936C249.518 180.789 246.529 180.083 243.743 178.853C242.548 178.285 241.484 177.477 240.617 176.478C239.75 175.479 239.099 174.311 238.706 173.048C237.696 169.7 237.195 166.218 237.219 162.72C237.273 161.137 237.002 159.56 236.423 158.086C235.791 156.761 234.936 155.554 233.896 154.518C233.248 153.812 232.531 153.12 233.021 152.135C233.608 150.955 235.004 150.652 236.017 149.972C238.106 148.468 239.676 146.352 240.511 143.918C242.913 137.756 242.124 130.967 243.686 124.632C244.263 122.291 240.653 121.293 240.076 123.636C238.638 129.467 239.147 135.577 237.436 141.351C236.819 143.436 235.824 145.71 233.891 146.892C232.66 147.641 231.397 148.138 230.449 149.29C229.906 149.905 229.511 150.635 229.293 151.425C229.075 152.215 229.04 153.044 229.189 153.85C229.811 156.565 232.674 157.884 233.35 160.602C233.55 162.083 233.626 163.579 233.577 165.073C233.698 166.928 233.919 168.775 234.239 170.607C234.693 173.938 236.12 177.061 238.342 179.584C240.363 181.701 243.153 182.8 245.919 183.576C249.331 184.568 252.904 184.881 256.437 184.495C257.067 184.421 256.788 184.214 257.065 184.831C257.219 185.174 257.392 185.509 257.553 185.849C258.282 187.396 258.917 188.985 259.453 190.609C260.207 192.885 263.824 191.91 263.064 189.613L263.072 189.616Z" fill="#211715"/>
<path d="M243.356 126.055C243.945 121.182 245.748 116.536 248.599 112.541C248.804 112.26 248.419 112.763 248.65 112.472C248.744 112.352 248.844 112.23 248.942 112.109C249.201 111.793 249.468 111.481 249.741 111.173C250.353 110.488 250.996 109.83 251.663 109.199C253.388 107.573 255.275 106.126 257.294 104.883C262.505 101.746 268.337 99.7837 274.385 99.1316C280.432 98.4795 286.548 99.1536 292.308 101.107C302.777 104.722 311.019 113.986 314.964 124.206C317.633 130.9 318.471 138.184 317.393 145.309C316.411 151.199 314.182 156.812 310.855 161.771C308.251 165.557 305.138 168.965 301.603 171.901C299.18 173.837 296.992 176.049 295.082 178.492C293.495 180.641 292.74 183.293 292.958 185.956C293.032 187.392 293.183 188.823 293.408 190.243C293.542 190.72 293.859 191.125 294.291 191.371C294.722 191.616 295.232 191.682 295.711 191.553C296.184 191.412 296.584 191.093 296.828 190.664C297.072 190.236 297.142 189.729 297.022 189.25C296.809 187.852 296.691 186.44 296.671 185.025C296.665 184.755 296.671 184.485 296.671 184.214C296.671 184.102 296.677 183.989 296.685 183.876C296.71 183.502 296.608 184.243 296.691 183.783C296.807 183.162 297.015 182.563 297.308 182.004C298.722 179.289 301.201 177.198 303.482 175.221C307.337 172.026 310.765 168.347 313.681 164.276C317.606 158.596 320.149 152.076 321.106 145.238C322.062 138.4 321.406 131.432 319.189 124.893C315.238 113.295 306.609 102.855 295.129 98.186C283.439 93.4301 269.469 94.372 258.273 100.049C249.776 104.356 243.021 111.51 240.572 120.86C240.148 122.57 239.831 124.306 239.622 126.056C239.625 126.552 239.823 127.026 240.174 127.377C240.524 127.728 240.999 127.926 241.495 127.928C241.988 127.916 242.457 127.715 242.805 127.366C243.154 127.018 243.355 126.549 243.367 126.056L243.356 126.055Z" fill="#211715"/>
<path d="M241.654 161.547C240.661 161.869 239.642 162.107 238.609 162.259L239.107 162.192C238.158 162.326 237.196 162.338 236.245 162.23L236.743 162.298C236.511 162.266 236.275 162.228 236.05 162.18C235.813 162.115 235.565 162.097 235.321 162.127C235.077 162.157 234.841 162.236 234.627 162.357C234.413 162.479 234.225 162.641 234.074 162.835C233.923 163.029 233.812 163.251 233.746 163.488C233.681 163.725 233.663 163.973 233.693 164.217C233.724 164.461 233.802 164.697 233.924 164.911C234.045 165.125 234.207 165.313 234.402 165.464C234.596 165.615 234.818 165.726 235.055 165.792C237.599 166.233 240.213 166.014 242.649 165.158C242.886 165.093 243.108 164.981 243.302 164.83C243.496 164.679 243.659 164.491 243.78 164.277C243.902 164.063 243.98 163.828 244.01 163.584C244.04 163.34 244.022 163.092 243.957 162.855C243.892 162.618 243.78 162.396 243.629 162.202C243.478 162.008 243.29 161.845 243.076 161.724C242.863 161.603 242.627 161.524 242.383 161.494C242.139 161.464 241.891 161.482 241.654 161.547Z" fill="#211715"/>
<path d="M250.693 298.583C252.906 295.915 254.637 292.882 255.808 289.619C256.772 286.543 257.53 283.407 258.078 280.23C259.434 274.011 260.476 267.727 261.2 261.402C261.197 260.907 260.998 260.432 260.648 260.082C260.297 259.732 259.823 259.533 259.328 259.53C258.834 259.54 258.364 259.741 258.015 260.09C257.666 260.439 257.466 260.909 257.455 261.402C256.864 267.266 255.713 273.091 254.54 278.86C254.006 281.868 253.316 284.846 252.473 287.782C251.519 290.754 250.016 293.519 248.042 295.936C247.704 296.294 247.516 296.767 247.516 297.26C247.516 297.752 247.704 298.225 248.042 298.583C248.395 298.932 248.87 299.127 249.366 299.127C249.862 299.127 250.337 298.932 250.69 298.583H250.693Z" fill="#211715"/>
<path d="M298.461 192.916C289.687 193.818 280.894 195.059 272.444 197.665C268.786 198.813 265.194 200.163 261.686 201.709C257.789 203.297 254.022 205.186 250.419 207.358C247.018 209.494 244.031 212.226 241.599 215.421C239.224 218.716 237.33 222.331 235.972 226.159C232.7 234.752 230.599 243.803 228.513 252.741C226.108 263.039 223.863 273.281 220.486 283.312C219.714 285.601 223.33 286.583 224.097 284.308C226.869 275.706 229.209 266.969 231.108 258.132C233.178 249.089 235.251 239.999 238.161 231.181C240.553 223.932 243.765 216.951 249.984 212.198C253.308 209.835 256.881 207.844 260.639 206.261C263.967 204.706 267.373 203.324 270.844 202.12C279.77 199.065 289.1 197.626 298.462 196.66C298.954 196.647 299.423 196.446 299.771 196.097C300.119 195.749 300.321 195.28 300.334 194.788C300.331 194.292 300.133 193.818 299.782 193.467C299.432 193.117 298.957 192.919 298.462 192.916H298.461Z" fill="#211715"/>
<path d="M304.047 190.003C302.239 187.08 299.976 183.861 296.243 183.601C294.965 183.58 293.687 183.693 292.433 183.938C290.658 184.193 288.894 184.518 287.135 184.866C283.07 185.569 279.062 186.57 275.144 187.862C271.354 189.213 267.73 190.992 264.342 193.163C262.836 194.01 261.527 195.167 260.503 196.559C259.444 198.366 258.554 200.267 257.846 202.238C257.717 202.717 257.782 203.228 258.027 203.659C258.273 204.09 258.679 204.407 259.156 204.541C259.635 204.66 260.141 204.59 260.57 204.346C260.999 204.102 261.317 203.703 261.459 203.23C262.005 201.819 262.634 200.442 263.342 199.105C263.92 198.103 264.755 197.275 265.761 196.705C268.688 194.757 271.818 193.133 275.096 191.861C278.528 190.627 282.053 189.666 285.637 188.987C288.615 188.285 291.631 187.754 294.669 187.396C295.192 187.327 295.72 187.309 296.247 187.342C296.648 187.413 297.034 187.554 297.386 187.759C298.899 188.674 299.914 190.427 300.817 191.889C302.082 193.935 305.323 192.057 304.051 189.999L304.047 190.003Z" fill="#211715"/>
<path d="M245.139 226.551C247.182 226.972 249.149 227.701 250.973 228.714C252.602 229.651 254.05 230.871 255.249 232.318C257.528 234.95 259.015 238.173 259.537 241.616C259.672 242.093 259.99 242.497 260.42 242.742C260.851 242.988 261.361 243.054 261.84 242.926C262.314 242.786 262.715 242.468 262.959 242.039C263.203 241.609 263.272 241.102 263.151 240.623C262.446 236.557 260.629 232.766 257.9 229.67C254.821 226.2 250.688 223.835 246.137 222.939C245.658 222.82 245.151 222.889 244.722 223.133C244.293 223.377 243.975 223.777 243.833 224.25C243.707 224.729 243.773 225.239 244.018 225.67C244.263 226.1 244.667 226.418 245.144 226.553L245.139 226.551Z" fill="#211715"/>
<path d="M306.016 195.42C313.999 199.308 320.313 205.943 323.804 214.107C326.867 220.986 328.036 228.846 328.519 236.325C329.378 249.6 329.362 262.987 329.091 276.282C329.081 282.894 328.706 289.5 327.968 296.071C327.97 296.567 328.168 297.041 328.519 297.392C328.87 297.743 329.345 297.941 329.84 297.943C330.333 297.931 330.802 297.73 331.151 297.381C331.499 297.033 331.7 296.563 331.713 296.071C332.381 290.209 332.739 284.316 332.786 278.417C332.973 270.9 332.99 263.378 332.893 255.859C332.814 249.617 332.684 243.367 332.313 237.135C331.864 229.589 330.784 221.798 328.075 214.719C324.396 205.107 317.336 196.578 307.908 192.186C307.476 191.949 306.97 191.887 306.493 192.012C306.017 192.137 305.607 192.44 305.347 192.858C305.1 193.288 305.032 193.797 305.158 194.277C305.284 194.756 305.593 195.166 306.019 195.42H306.016Z" fill="#211715"/>
<path d="M240.58 121.528C242.991 129.377 247.992 136.175 254.766 140.814C254.979 140.938 255.213 141.019 255.457 141.053C255.701 141.086 255.949 141.071 256.187 141.009C256.424 140.946 256.648 140.838 256.844 140.689C257.04 140.54 257.204 140.355 257.328 140.142C257.452 139.93 257.534 139.695 257.567 139.452C257.6 139.208 257.585 138.96 257.523 138.722C257.461 138.484 257.352 138.261 257.203 138.065C257.055 137.869 256.869 137.704 256.657 137.58C250.702 133.462 246.311 127.456 244.191 120.534C243.49 118.236 239.874 119.214 240.58 121.528Z" fill="#211715"/>
<path d="M254.498 130.158C258.822 136.873 263.365 143.715 270.195 148.133C272.225 149.444 274.105 146.204 272.085 144.899C265.823 140.85 261.693 134.414 257.731 128.27C256.431 126.25 253.188 128.126 254.498 130.16V130.158Z" fill="#211715"/>
<path d="M274.031 165.979C274.512 168.246 275.313 170.433 276.408 172.476C277.317 174.447 278.634 176.202 280.273 177.625C282.116 178.987 284.15 180.069 286.309 180.836C288.291 181.614 290.336 182.223 292.421 182.655C292.9 182.775 293.407 182.705 293.835 182.461C294.264 182.217 294.583 181.817 294.724 181.345C294.852 180.866 294.785 180.356 294.54 179.925C294.295 179.494 293.891 179.176 293.414 179.041C289.763 178.297 285.713 177.075 282.703 174.803C282.885 174.941 282.456 174.597 282.463 174.602C282.325 174.482 282.191 174.356 282.061 174.228C281.815 173.974 281.583 173.705 281.369 173.424C280.71 172.528 280.131 171.577 279.638 170.58C278.709 168.817 278.035 166.931 277.639 164.977C277.503 164.501 277.186 164.096 276.755 163.851C276.324 163.606 275.815 163.54 275.336 163.667C274.862 163.807 274.461 164.125 274.217 164.555C273.972 164.984 273.904 165.492 274.025 165.971L274.031 165.979Z" fill="#211715"/>
<path d="M308.853 160.558C313.842 161.16 318.259 162.841 321.164 166.42C324.703 170.781 324.862 176.812 322.806 181.74C319.673 189.248 314.13 199.868 319.136 206.123C315.306 209.475 307.123 206.056 304.394 204.505C300.921 202.532 298.821 199.482 296.8 196.165C294.577 192.514 292.938 185.612 293.007 182.991C293.146 180.576 293.427 178.172 293.85 175.791" fill="#7A7473"/>
<path d="M308.853 162.431C312.258 162.861 315.839 163.909 318.434 166.259C319.719 167.45 320.727 168.908 321.388 170.531C322.049 172.154 322.345 173.902 322.257 175.652C322.153 179.24 320.478 182.41 319.11 185.647C317.559 188.99 316.39 192.497 315.625 196.102C314.96 199.86 315.096 203.927 317.519 207.069L317.812 204.799C315.975 206.321 312.869 205.65 310.803 205.089C308.331 204.482 305.994 203.422 303.91 201.962C301.387 199.89 299.346 197.294 297.93 194.352C296.6 191.643 295.672 188.753 295.176 185.776C294.581 182.615 295.137 179.427 295.656 176.288C295.773 175.81 295.702 175.305 295.458 174.876C295.214 174.448 294.816 174.13 294.345 173.985C293.866 173.857 293.356 173.923 292.924 174.168C292.493 174.413 292.176 174.819 292.041 175.296C291.48 178.726 290.858 182.206 291.376 185.674C291.888 189.152 292.916 192.534 294.426 195.709C296.049 199.19 298.426 202.267 301.385 204.717C303.86 206.556 306.67 207.896 309.657 208.662C313.273 209.668 317.397 209.984 320.457 207.445C320.75 207.153 320.938 206.772 320.991 206.361C321.044 205.95 320.959 205.534 320.75 205.177C318.661 202.469 318.749 199.115 319.473 195.917C320.438 192.203 321.746 188.588 323.38 185.116C324.926 181.539 326.26 178.021 325.966 174.042C325.736 170.007 323.936 166.223 320.952 163.497C317.566 160.501 313.251 159.241 308.85 158.684C308.354 158.687 307.879 158.885 307.529 159.235C307.178 159.586 306.98 160.061 306.977 160.556C306.989 161.049 307.19 161.519 307.539 161.868C307.887 162.216 308.357 162.417 308.85 162.429L308.853 162.431Z" fill="#211715"/>
<path d="M278.663 319.633C279.235 307.566 280.551 295.542 281.346 284.182C281.671 279.546 284.442 275.457 288.907 274.169C302.165 270.344 321.475 264.714 334.813 260.832C340.016 259.319 345.593 263.266 345.175 268.668C343.885 285.402 343.712 291.843 342.87 304.112" fill="white"/>
<path d="M280.535 319.633C281.097 307.94 282.323 296.292 283.188 284.619C283.49 280.538 285.673 277.07 289.714 275.885C294.058 274.613 298.41 273.37 302.756 272.108C312.209 269.362 321.66 266.612 331.108 263.859C333.029 263.297 335.134 262.367 337.158 262.38C338.046 262.387 338.923 262.576 339.735 262.934C340.548 263.292 341.279 263.813 341.883 264.464C343.255 265.962 343.381 267.654 343.233 269.587C343.034 272.184 342.845 274.782 342.664 277.38C342.047 286.287 341.607 295.205 340.998 304.112C340.833 306.517 344.578 306.507 344.743 304.112C345.311 295.807 345.726 287.493 346.286 279.188C346.466 276.504 346.657 273.824 346.86 271.145C347.052 268.577 347.234 266.237 346.017 263.875C344.919 261.921 343.212 260.38 341.155 259.489C339.098 258.598 336.806 258.406 334.63 258.942C329.957 260.079 325.348 261.635 320.73 262.98C315.647 264.46 310.564 265.939 305.48 267.417C300.637 268.825 295.791 270.229 290.945 271.63C288.698 272.281 286.47 272.847 284.569 274.288C282.77 275.666 281.374 277.501 280.526 279.602C279.403 282.317 279.408 285.253 279.183 288.137C278.914 291.578 278.621 295.016 278.322 298.454C277.719 305.506 277.134 312.561 276.793 319.631C276.677 322.04 280.422 322.034 280.538 319.631L280.535 319.633Z" fill="#211715"/>
<path d="M141.834 143.773C140.638 140.216 137.857 130.891 134.645 120.556C134.574 120.325 134.417 120.131 134.207 120.013C133.996 119.895 133.748 119.864 133.514 119.925C125.744 121.984 108.673 126.422 100.416 128.88C100.179 128.951 99.9794 129.113 99.8615 129.331C99.7436 129.549 99.7167 129.805 99.7868 130.042C102.034 137.643 109.544 164.065 111.731 171.501C111.797 171.73 111.948 171.924 112.154 172.045C112.36 172.165 112.604 172.202 112.836 172.147C118.257 170.872 131.765 167.257 135.633 166.143" fill="white"/>
<path d="M143.638 143.276C142.094 138.67 140.736 133.998 139.313 129.353C138.852 127.847 138.389 126.34 137.926 124.833C137.509 123.049 136.952 121.301 136.259 119.604C134.964 117.013 131.867 118.422 129.771 118.974C120.262 121.479 110.733 123.925 101.291 126.669C100.189 126.988 98.9826 127.224 98.3188 128.26C97.641 129.322 97.9444 130.418 98.2702 131.523C98.6927 132.959 99.1112 134.397 99.5256 135.838C100.711 139.947 101.893 144.058 103.071 148.171C105.283 155.889 107.471 163.618 109.726 171.319C110.089 172.563 110.651 173.669 112.049 173.969C113.119 174.199 114.369 173.701 115.414 173.442C117.91 172.824 120.399 172.178 122.887 171.525C127.308 170.365 131.735 169.206 136.129 167.944C138.441 167.28 137.458 163.666 135.133 164.333C131.643 165.335 128.129 166.263 124.62 167.194C122.435 167.773 120.251 168.345 118.066 168.909C117.175 169.138 116.283 169.365 115.39 169.59C114.915 169.709 114.44 169.827 113.965 169.944C113.659 170.019 112.935 170.047 112.713 170.248L112.526 170.293L113.502 170.871C113.471 170.733 113.431 170.598 113.383 170.465C113.333 170.212 113.26 169.963 113.166 169.722L112.582 167.709C112.129 166.141 111.677 164.572 111.226 163.003C110.08 159.02 108.938 155.035 107.798 151.049C106.634 146.989 105.469 142.929 104.303 138.868C103.825 137.207 103.345 135.546 102.864 133.884C102.6 132.589 102.23 131.317 101.757 130.083C101.711 129.99 101.71 129.74 101.635 129.67C102.266 130.246 100.436 130.821 101.587 130.483C101.985 130.366 102.383 130.25 102.78 130.136C103.752 129.855 104.724 129.578 105.698 129.306C107.931 128.682 110.167 128.067 112.407 127.462C117.127 126.184 121.853 124.925 126.584 123.685C128.706 123.123 130.828 122.565 132.95 122.008C133.176 121.983 133.396 121.925 133.605 121.835C133.956 121.784 133.886 121.717 133.398 121.633C132.931 121.344 132.838 121.442 133.117 121.928C133.27 122.832 133.542 123.711 133.926 124.543C134.482 126.344 135.035 128.146 135.587 129.948C137.049 134.723 138.445 139.531 140.034 144.272C140.796 146.545 144.415 145.571 143.645 143.277L143.638 143.276Z" fill="#211715"/>
<path d="M145.377 173.332C144.286 173.347 143.205 173.118 142.213 172.662C141.419 172.322 140.697 171.835 140.083 171.227C139.108 170.175 138.467 168.858 138.24 167.442C137.91 166.348 137.793 165.199 137.898 164.061C136.456 163.418 135.511 162.877 134.856 162.589C133.885 162.226 133.028 161.612 132.371 160.81C131.894 160.142 131.662 159.329 131.716 158.51C131.792 157.751 131.991 157.01 132.305 156.315C131.724 155.912 131.181 155.458 130.682 154.958C129.876 153.267 130.837 150.38 131.596 149.18C131.8 148.805 132.091 148.485 132.445 148.248C132.799 148.01 133.205 147.861 133.629 147.815C134.29 147.733 134.96 147.805 135.589 148.024C138.489 149.024 141.292 150.288 143.961 151.8C143.331 150.004 142.304 147.119 141.773 145.313C141.639 144.811 141.587 144.291 141.621 143.772C141.668 143.533 141.802 143.318 141.996 143.17C142.19 143.021 142.431 142.949 142.675 142.965C143.36 142.936 144.044 143.031 144.694 143.246C146.199 144.008 147.908 146.105 149.038 147.956C150.46 150.158 151.404 152.634 151.807 155.224C152.043 157.402 152.051 159.598 151.833 161.777C151.405 164.211 151.365 165.672 150.719 168.284C150.495 169.474 150.002 170.596 149.277 171.566C148.423 172.536 147.237 173.151 145.952 173.291C145.758 173.313 145.568 173.326 145.377 173.332Z" fill="white"/>
<path d="M144.48 149.954C142.141 148.674 139.715 147.56 137.22 146.621C134.973 145.794 132.236 145.424 130.519 147.496C129.129 149.271 128.417 151.483 128.511 153.735C128.503 154.795 128.905 155.817 129.635 156.585C130.181 157.068 130.756 157.518 131.356 157.932L130.684 155.371C129.553 157.774 129.452 160.632 131.467 162.618C132.292 163.354 133.235 163.945 134.257 164.367C135.219 164.829 136.163 165.326 137.139 165.761C137.572 165.996 138.077 166.058 138.553 165.933C139.029 165.808 139.44 165.506 139.701 165.089C139.948 164.659 140.016 164.15 139.89 163.67C139.765 163.191 139.456 162.78 139.03 162.527C137.568 161.915 136.143 161.221 134.76 160.447C134.48 160.314 134.231 160.122 134.031 159.885C133.831 159.648 133.685 159.37 133.601 159.071C133.541 158.786 133.556 158.491 133.645 158.214C133.689 158.011 133.738 157.809 133.802 157.61C133.82 157.551 134.045 156.991 133.918 157.261C134.151 156.828 134.211 156.323 134.086 155.848C133.962 155.373 133.662 154.962 133.247 154.699C133.121 154.605 132.997 154.511 132.872 154.418C132.82 154.378 132.54 154.155 132.793 154.357C132.68 154.268 132.569 154.179 132.459 154.086C132.372 153.998 132.278 153.916 132.178 153.84C131.855 153.637 132.411 154.05 132.334 154.078C132.267 153.818 132.235 153.549 132.24 153.28C132.28 152.552 132.435 151.834 132.7 151.154C132.866 150.684 133.107 150.243 133.413 149.849C133.601 149.662 133.396 149.8 133.688 149.721C133.905 149.638 134.14 149.613 134.369 149.649C135.34 149.852 136.282 150.17 137.178 150.595C139.029 151.351 140.835 152.215 142.584 153.184C144.706 154.328 146.599 151.095 144.475 149.95L144.48 149.954Z" fill="#211715"/>
<path d="M145.34 150.107C144.762 148.451 144.158 146.797 143.664 145.114C143.617 144.838 143.555 144.566 143.477 144.298C143.459 144.256 143.506 144.005 143.471 143.986L143.072 144.413C142.565 144.752 142.498 144.891 142.874 144.832C143.319 145.046 143.802 144.863 144.255 145.162C145.558 146.174 146.635 147.447 147.418 148.899C148.38 150.411 149.116 152.055 149.603 153.779C150.451 156.943 150.135 160.277 149.69 163.469C149.316 166.14 149.204 170.915 145.796 171.427C141.607 172.062 139.516 167.764 139.754 164.236C139.916 161.831 136.171 161.84 136.009 164.236C135.684 169.066 138.386 173.955 143.336 174.991C144.569 175.293 145.857 175.282 147.085 174.959C148.312 174.637 149.44 174.012 150.364 173.143C152.076 171.392 152.611 168.801 153.003 166.471C153.759 162.037 154.391 157.403 153.262 152.969C152.631 150.621 151.615 148.395 150.255 146.381C149.038 144.544 147.352 142.216 145.19 141.435C143.091 140.676 139.964 141.026 139.746 143.77C139.732 144.906 139.942 146.033 140.364 147.088C140.798 148.433 141.264 149.766 141.731 151.099C142.521 153.359 146.14 152.386 145.341 150.103L145.34 150.107Z" fill="#211715"/>
<path d="M88.4878 171.298C85.9676 173.006 83.1646 174.52 80.0826 174.627C77.7106 174.653 75.4032 173.853 73.5557 172.365C71.7081 170.877 70.4352 168.793 69.9548 166.47C69.1974 161.944 71.9208 158.119 76.7572 156.352C79.4366 155.768 84.0137 154.644 86.2672 154.533C88.2285 154.439 90.4801 154.697 91.4228 156.324C91.7586 156.966 91.8945 157.694 91.8131 158.415C91.7317 159.135 91.4366 159.814 90.9659 160.365C90.4664 160.926 89.861 161.382 89.1844 161.708C88.5078 162.034 87.7734 162.222 87.0236 162.263C88.2718 162.887 89.4065 163.716 90.3808 164.715C90.8538 165.202 91.1901 165.806 91.3559 166.464C91.5217 167.123 91.5112 167.813 91.3255 168.466C90.8085 169.52 89.9856 170.393 88.9644 170.972C88.8071 171.081 88.6479 171.191 88.4878 171.298Z" fill="white"/>
<path d="M87.5432 169.683C84.4388 171.765 80.7576 173.681 76.9885 172.227C75.548 171.693 74.2881 170.763 73.3545 169.542C72.4209 168.322 71.8518 166.863 71.713 165.333C71.5913 162.244 73.5919 159.931 76.2358 158.603C77.7301 157.995 79.2934 157.574 80.8906 157.348C82.481 156.955 84.0931 156.655 85.7186 156.45C86.8242 156.341 89.2068 156.094 89.8378 157.328C90.7085 159.02 88.3399 160.254 87.0236 160.393C85.2851 160.58 84.3377 162.883 86.0781 163.882C87.3213 164.595 88.9803 165.399 89.5083 166.843C90.0073 168.217 88.5047 169.028 87.5423 169.685C85.5622 171.034 87.4337 174.28 89.4325 172.917C91.6943 171.374 93.7942 169.52 93.2709 166.5C92.7766 163.654 90.2928 161.982 87.9682 160.648L87.0236 164.138C89.5907 163.867 92.1063 162.714 93.2025 160.235C93.7544 159.077 93.8555 157.755 93.4862 156.526C93.1169 155.298 92.3036 154.25 91.2047 153.588C89.2256 152.455 86.7765 152.543 84.5961 152.846C82.3342 153.162 80.1023 153.689 77.8797 154.188C73.5657 155.16 69.4736 157.914 68.2874 162.41C67.0648 167.048 69.3453 171.703 73.1379 174.385C75.3719 175.96 78.092 176.692 80.8147 176.45C83.9341 176.006 86.8939 174.792 89.4278 172.919C91.4247 171.579 89.5514 168.335 87.5432 169.683Z" fill="#211715"/>
<path d="M54.0768 102.807C54.0768 100.262 52.4572 97.9295 49.7123 97.9454C50.4346 97.4114 51.0291 96.7232 51.4524 95.9309C51.8757 95.1386 52.1172 94.2619 52.1595 93.3646C52.1376 92.7467 51.9897 92.1399 51.7247 91.5813C51.4597 91.0227 51.0832 90.5243 50.6185 90.1165C50.1538 89.7088 49.6106 89.4004 49.0223 89.2103C48.434 89.0203 47.8131 88.9525 47.1976 89.0112C45.9236 89.0018 44.6954 89.4859 43.7704 90.3621C42.8455 91.2382 42.2955 92.4383 42.2358 93.7109C42.2667 94.5871 42.5045 95.4434 42.9299 96.21C43.3552 96.9765 43.956 97.6315 44.683 98.1214C42.8218 98.1448 40.5553 100.733 40.5553 103.279L54.0768 102.807Z" fill="#B3B3B3"/>
<path d="M59.3383 83.1207C51.3253 83.2995 43.303 83.4156 35.2957 83.776C34.8018 83.7847 34.3306 83.9847 33.9813 84.334C33.632 84.6833 33.432 85.1546 33.4233 85.6484C33.4289 91.632 33.4314 97.615 33.4308 103.597C33.4369 104.092 33.6361 104.565 33.9859 104.915C34.3358 105.264 34.8085 105.464 35.3032 105.47C43.3133 105.282 51.3244 104.975 59.3317 104.681C59.8258 104.673 60.2973 104.473 60.6467 104.124C60.996 103.775 61.1959 103.303 61.2041 102.809C61.2041 96.8707 61.177 90.9314 61.2107 84.994C61.2238 82.5833 57.479 82.5805 57.4659 84.994C57.4322 90.9314 57.4603 96.8707 57.4593 102.809L59.3317 100.937C51.3244 101.231 43.3133 101.538 35.3032 101.725L37.1756 103.597C37.1756 97.6143 37.1731 91.6314 37.1681 85.6484L35.2957 87.5208C43.303 87.1613 51.3253 87.0453 59.3383 86.8655C61.7443 86.8112 61.7527 83.0664 59.3383 83.1207Z" fill="#211715"/>
<path d="M147.988 32.1425L150.833 28.7562C151.174 28.3975 151.37 27.9253 151.384 27.4306C151.38 26.9344 151.183 26.4592 150.835 26.1058C150.483 25.7558 150.008 25.5589 149.511 25.5582C149.265 25.5562 149.021 25.6037 148.794 25.6978C148.566 25.7918 148.36 25.9306 148.187 26.1058L145.34 29.4902C145 29.8489 144.805 30.3203 144.791 30.814C144.795 31.3101 144.991 31.7853 145.34 32.1387C145.692 32.4882 146.167 32.685 146.663 32.6864C146.91 32.6883 147.154 32.6408 147.381 32.5467C147.609 32.4527 147.815 32.3139 147.988 32.1387V32.1425Z" fill="#211715"/>
<path d="M154.175 47.1845L159.044 47.0769C159.54 47.0696 160.014 46.8738 160.371 46.5292C160.633 46.2673 160.811 45.9337 160.883 45.5706C160.956 45.2074 160.919 44.831 160.777 44.4889C160.635 44.1468 160.395 43.8544 160.087 43.6487C159.78 43.4429 159.418 43.3331 159.047 43.333L154.179 43.4407C153.684 43.4485 153.211 43.6443 152.855 43.9883C152.593 44.2502 152.415 44.5838 152.342 44.9472C152.27 45.3105 152.307 45.6871 152.449 46.0294C152.59 46.3717 152.83 46.6642 153.138 46.87C153.447 47.0758 153.809 47.1856 154.179 47.1855L154.175 47.1845Z" fill="#211715"/>
<path d="M152.285 39.0825C154.189 37.9535 156.155 36.9293 158.095 35.8695C158.308 35.7454 158.493 35.5807 158.642 35.3847C158.791 35.1888 158.899 34.9655 158.962 34.7276C159.024 34.4898 159.039 34.2419 159.006 33.9982C158.972 33.7546 158.891 33.5199 158.767 33.3076C158.643 33.0953 158.478 32.9095 158.282 32.7608C158.086 32.6121 157.863 32.5035 157.625 32.4411C157.145 32.3151 156.634 32.3852 156.205 32.6358C154.264 33.6994 152.298 34.7198 150.395 35.8498C150.181 35.9732 149.994 36.1377 149.844 36.3336C149.695 36.5296 149.585 36.7532 149.522 36.9917C149.459 37.2302 149.443 37.4788 149.476 37.7233C149.51 37.9677 149.591 38.2032 149.715 38.4162C149.84 38.6292 150.005 38.8154 150.202 38.9643C150.399 39.1131 150.623 39.2216 150.862 39.2835C151.101 39.3455 151.349 39.3596 151.594 39.3251C151.838 39.2906 152.073 39.2082 152.285 39.0825Z" fill="#211715"/>
</svg>
