<svg width="105" height="105" viewBox="0 0 105 105" fill="none" xmlns="http://www.w3.org/2000/svg">
<g clip-path="url(#clip0_40_187)">
<path d="M52.5 62.3438C57.9366 62.3438 62.3438 57.9366 62.3438 52.5C62.3438 47.0634 57.9366 42.6562 52.5 42.6562C47.0634 42.6562 42.6562 47.0634 42.6562 52.5C42.6562 57.9366 47.0634 62.3438 52.5 62.3438Z" fill="#F76D57"/>
<path d="M52.5 32.8125C41.6276 32.8125 32.8125 41.6276 32.8125 52.5C32.8125 63.3724 41.6276 72.1875 52.5 72.1875C63.3724 72.1875 72.1875 63.3724 72.1875 52.5C72.1875 41.6276 63.3724 32.8125 52.5 32.8125ZM52.5 65.625C45.2517 65.625 39.375 59.7483 39.375 52.5C39.375 45.2517 45.2517 39.375 52.5 39.375C59.7483 39.375 65.625 45.2517 65.625 52.5C65.625 59.7483 59.7483 65.625 52.5 65.625Z" fill="#F9EBB2"/>
<path d="M52.5 22.9688C36.1905 22.9688 22.9688 36.1905 22.9688 52.5C22.9688 68.8095 36.1905 82.0312 52.5 82.0312C68.8095 82.0312 82.0312 68.8095 82.0312 52.5C82.0312 36.1905 68.8095 22.9688 52.5 22.9688ZM52.5 75.4688C39.8147 75.4688 29.5312 65.1853 29.5312 52.5C29.5312 39.8147 39.8147 29.5312 52.5 29.5312C65.1853 29.5312 75.4688 39.8147 75.4688 52.5C75.4688 65.1853 65.1853 75.4688 52.5 75.4688Z" fill="#45AAB8"/>
<path d="M52.5 13.125C30.7535 13.125 13.125 30.7535 13.125 52.5C13.125 74.2465 30.7535 91.875 52.5 91.875C74.2465 91.875 91.875 74.2465 91.875 52.5C91.875 30.7535 74.2465 13.125 52.5 13.125ZM52.5 85.3125C34.3777 85.3125 19.6875 70.6223 19.6875 52.5C19.6875 34.3777 34.3777 19.6875 52.5 19.6875C70.6223 19.6875 85.3125 34.3777 85.3125 52.5C85.3125 70.6223 70.6223 85.3125 52.5 85.3125Z" fill="#F9EBB2"/>
<path d="M52.5 3.28125C25.3181 3.28125 3.28125 25.3181 3.28125 52.5C3.28125 79.6819 25.3181 101.719 52.5 101.719C79.6819 101.719 101.719 79.6819 101.719 52.5C101.719 25.3181 79.6819 3.28125 52.5 3.28125ZM52.5 95.1562C28.9423 95.1562 9.84375 76.0577 9.84375 52.5C9.84375 28.9423 28.9423 9.84375 52.5 9.84375C76.0577 9.84375 95.1562 28.9423 95.1562 52.5C95.1562 76.0577 76.0577 95.1562 52.5 95.1562Z" fill="#45AAB8"/>
<path d="M52.5 0C38.5924 0 25.958 5.41734 16.5654 14.2455L14.7656 12.4458V8.20312C14.7656 7.9275 14.682 7.68141 14.5622 7.45336C14.5392 7.35 14.4818 7.23844 14.3505 7.10719L7.72406 0.480703H7.72242C7.42547 0.182109 7.01531 0 6.5625 0C5.65523 0 4.92188 0.733359 4.92188 1.64062V4.92188H1.64062C0.733359 4.92188 0 5.65523 0 6.5625C0 7.01531 0.18375 7.42547 0.480703 7.72242V7.72406L7.04156 14.2833L7.0432 14.2849L7.11047 14.3522C7.24172 14.4834 7.35164 14.5409 7.455 14.5638C7.68141 14.682 7.92914 14.7656 8.20312 14.7656H12.4458L14.2455 16.5654C5.41734 25.958 0 38.5924 0 52.5C0 81.4948 23.5052 105 52.5 105C81.4948 105 105 81.4948 105 52.5C105 23.5052 81.4948 0 52.5 0ZM11.4844 11.4844H8.88398L5.60766 8.20969L8.20312 8.20312L8.22281 5.62078L11.4844 8.88234V11.4844ZM52.5 101.719C25.3181 101.719 3.28125 79.6819 3.28125 52.5C3.28125 39.4997 8.33109 27.6823 16.5654 18.8852L21.2051 23.5249C14.157 31.1341 9.84375 41.3109 9.84375 52.5C9.84375 76.0577 28.9423 95.1562 52.5 95.1562C76.0577 95.1562 95.1562 76.0577 95.1562 52.5C95.1562 28.9423 76.0577 9.84375 52.5 9.84375C41.3109 9.84375 31.1341 14.157 23.5249 21.2051L18.8852 16.5654C27.6839 8.33109 39.498 3.28125 52.5 3.28125C79.6819 3.28125 101.719 25.3181 101.719 52.5C101.719 79.6819 79.6819 101.719 52.5 101.719ZM28.1941 30.514C22.9245 36.3333 19.6875 44.0295 19.6875 52.5C19.6875 70.6223 34.3777 85.3125 52.5 85.3125C70.6223 85.3125 85.3125 70.6223 85.3125 52.5C85.3125 34.3777 70.6223 19.6875 52.5 19.6875C44.0295 19.6875 36.3333 22.9245 30.514 28.1941L25.8448 23.5266C32.8584 17.0691 42.2166 13.125 52.5 13.125C74.2465 13.125 91.875 30.7535 91.875 52.5C91.875 74.2465 74.2465 91.875 52.5 91.875C30.7535 91.875 13.125 74.2465 13.125 52.5C13.125 42.2166 17.0707 32.8568 23.5249 25.8464L28.1941 30.514ZM35.1537 37.4735C31.6608 41.5029 29.5312 46.748 29.5312 52.5C29.5312 65.1853 39.8147 75.4688 52.5 75.4688C65.1853 75.4688 75.4688 65.1853 75.4688 52.5C75.4688 39.8147 65.1853 29.5312 52.5 29.5312C46.748 29.5312 41.5029 31.6608 37.4735 35.1537L32.8338 30.514C38.0576 25.8366 44.9367 22.9688 52.5 22.9688C68.8095 22.9688 82.0312 36.1905 82.0312 52.5C82.0312 68.8095 68.8095 82.0312 52.5 82.0312C36.1905 82.0312 22.9688 68.8095 22.9688 52.5C22.9688 44.9367 25.8366 38.0576 30.514 32.8338L35.1537 37.4735ZM42.1411 44.4609C40.4135 46.684 39.375 49.4665 39.375 52.5C39.375 59.7483 45.2517 65.625 52.5 65.625C59.7483 65.625 65.625 59.7483 65.625 52.5C65.625 45.2517 59.7483 39.375 52.5 39.375C49.4665 39.375 46.684 40.4135 44.4609 42.1411L39.795 37.4752C43.2255 34.5712 47.6552 32.8125 52.5 32.8125C63.3724 32.8125 72.1875 41.6276 72.1875 52.5C72.1875 63.3724 63.3724 72.1875 52.5 72.1875C41.6276 72.1875 32.8125 63.3724 32.8125 52.5C32.8125 47.6552 34.5712 43.2255 37.4752 39.795L42.1411 44.4609ZM51.3401 53.6599C51.9816 54.3014 53.0184 54.3014 53.6599 53.6599C54.3014 53.0184 54.3014 51.9816 53.6599 51.3401L46.8021 44.4823C48.4116 43.3371 50.3737 42.6562 52.5 42.6562C57.9354 42.6562 62.3438 47.0646 62.3438 52.5C62.3438 57.9354 57.9354 62.3438 52.5 62.3438C47.0646 62.3438 42.6562 57.9354 42.6562 52.5C42.6562 50.3754 43.3371 48.4116 44.4823 46.8021L51.3401 53.6599Z" fill="#394240"/>
<path d="M11.4844 11.4844H8.88399L5.60767 8.20976L8.20314 8.20319L8.22282 5.62085L11.4844 8.88241V11.4844Z" fill="#B4CCB9"/>
</g>
<defs>
<clipPath id="clip0_40_187">
<rect width="105" height="105" fill="white"/>
</clipPath>
</defs>
</svg>
