<svg width="60" height="60" viewBox="0 0 60 60" fill="none" xmlns="http://www.w3.org/2000/svg">
<path fill-rule="evenodd" clip-rule="evenodd" d="M8.75006 20C8.75056 17.6298 9.36374 15.3 10.5301 13.2366C11.6965 11.1732 13.3764 9.44638 15.4069 8.22367C17.4374 7.00095 19.7495 6.32388 22.1188 6.25816C24.4881 6.19243 26.8341 6.74028 28.9293 7.84855C31.0244 8.95682 32.7975 10.5879 34.0765 12.5834C35.3555 14.5789 36.0969 16.8712 36.2288 19.2377C36.3606 21.6043 35.8786 23.9647 34.8293 26.09C33.78 28.2153 32.1991 30.0333 30.2401 31.3675C34.4588 32.9148 38.118 35.6893 40.7467 39.3338C43.3753 42.9783 44.8532 47.326 44.9901 51.8175C44.9975 52.0637 44.9563 52.309 44.8689 52.5393C44.7815 52.7696 44.6496 52.9805 44.4807 53.1598C44.1396 53.522 43.6686 53.7338 43.1713 53.7488C42.674 53.7637 42.1912 53.5804 41.829 53.2394C41.4668 52.8983 41.255 52.4273 41.2401 51.93C41.0912 47.0586 39.0514 42.4367 35.553 39.0435C32.0546 35.6504 27.3724 33.7528 22.4988 33.7528C17.6252 33.7528 12.9431 35.6504 9.44463 39.0435C5.94621 42.4367 3.90644 47.0586 3.75756 51.93C3.73253 52.4196 3.51676 52.8799 3.15646 53.2123C2.79617 53.5447 2.32001 53.7228 1.83 53.7085C1.33999 53.6941 0.875094 53.4884 0.534917 53.1354C0.19474 52.7824 0.00633501 52.3102 0.0100641 51.82C0.146442 47.3281 1.62408 42.9798 4.25278 39.3348C6.88148 35.6898 10.5409 32.915 14.7601 31.3675C12.9068 30.1069 11.3903 28.4119 10.3427 26.4305C9.29507 24.449 8.7483 22.2413 8.75006 20ZM22.5001 10C19.8479 10 17.3044 11.0536 15.429 12.9289C13.5536 14.8043 12.5001 17.3478 12.5001 20C12.5001 22.6522 13.5536 25.1957 15.429 27.0711C17.3044 28.9464 19.8479 30 22.5001 30C25.1522 30 27.6958 28.9464 29.5711 27.0711C31.4465 25.1957 32.5001 22.6522 32.5001 20C32.5001 17.3478 31.4465 14.8043 29.5711 12.9289C27.6958 11.0536 25.1522 10 22.5001 10Z" fill="#27529C"/>
<path d="M43.2251 20C42.8551 20 42.4951 20.025 42.1401 20.075C41.8922 20.1194 41.6379 20.1134 41.3925 20.0573C41.147 20.0013 40.9153 19.8964 40.7112 19.7489C40.5071 19.6014 40.3349 19.4143 40.2047 19.1988C40.0745 18.9833 39.989 18.7438 39.9534 18.4945C39.9178 18.2452 39.9328 17.9913 39.9974 17.748C40.062 17.5046 40.175 17.2768 40.3296 17.078C40.4843 16.8793 40.6773 16.7137 40.8973 16.5912C41.1173 16.4687 41.3597 16.3918 41.61 16.365C44.0965 16.0055 46.6319 16.483 48.8172 17.7223C51.0026 18.9616 52.7138 20.8924 53.6816 23.2108C54.6493 25.5292 54.8188 28.1036 54.1632 30.5288C53.5075 32.9541 52.0641 35.0924 50.0601 36.6075C53.006 37.9266 55.5073 40.07 57.2622 42.7791C59.0171 45.4881 59.9506 48.6472 59.9501 51.875C59.9501 52.3722 59.7525 52.8492 59.4009 53.2008C59.0492 53.5524 58.5723 53.75 58.0751 53.75C57.5778 53.75 57.1009 53.5524 56.7492 53.2008C56.3976 52.8492 56.2001 52.3722 56.2001 51.875C56.1998 49.0853 55.3009 46.37 53.6366 44.1312C51.9724 41.8924 49.6313 40.2491 46.9601 39.445L45.6251 39.045V34.855L46.65 34.3325C48.1694 33.5628 49.3851 32.3036 50.1008 30.7581C50.8165 29.2125 50.9905 27.4709 50.5946 25.8144C50.1988 24.1578 49.2562 22.683 47.919 21.628C46.5819 20.5731 44.9283 19.9995 43.2251 20Z" fill="#27529C"/>
</svg>
