<svg width="60" height="60" viewBox="0 0 60 60" fill="none" xmlns="http://www.w3.org/2000/svg">
<path fill-rule="evenodd" clip-rule="evenodd" d="M8.75006 20C8.75056 17.6298 9.36374 15.3 10.5301 13.2366C11.6965 11.1732 13.3764 9.44638 15.4069 8.22367C17.4374 7.00095 19.7495 6.32388 22.1188 6.25816C24.4881 6.19243 26.8341 6.74028 28.9293 7.84855C31.0244 8.95682 32.7975 10.5879 34.0765 12.5834C35.3555 14.5789 36.0969 16.8712 36.2288 19.2377C36.3607 21.6043 35.8786 23.9647 34.8293 26.09C33.78 28.2153 32.1991 30.0333 30.2401 31.3675C34.4588 32.9148 38.118 35.6893 40.7467 39.3338C43.3753 42.9783 44.8532 47.326 44.9901 51.8175C44.9975 52.0637 44.9563 52.309 44.8689 52.5393C44.7815 52.7696 44.6495 52.9805 44.4807 53.1598C44.1396 53.522 43.6686 53.7338 43.1713 53.7488C42.674 53.7637 42.1912 53.5804 41.829 53.2394C41.4668 52.8983 41.255 52.4273 41.2401 51.93C41.0912 47.0586 39.0514 42.4367 35.553 39.0435C32.0546 35.6504 27.3724 33.7528 22.4988 33.7528C17.6252 33.7528 12.9431 35.6504 9.44463 39.0435C5.94621 42.4367 3.90644 47.0586 3.75756 51.93C3.73253 52.4196 3.51676 52.8799 3.15646 53.2123C2.79617 53.5447 2.32001 53.7228 1.83 53.7085C1.33999 53.6941 0.875094 53.4884 0.534917 53.1354C0.19474 52.7824 0.00633501 52.3102 0.0100641 51.82C0.146442 47.3281 1.62408 42.9798 4.25278 39.3348C6.88148 35.6898 10.5409 32.915 14.7601 31.3675C12.9068 30.1069 11.3903 28.4119 10.3427 26.4305C9.29507 24.449 8.7483 22.2413 8.75006 20ZM22.5001 10C19.8479 10 17.3044 11.0536 15.429 12.9289C13.5536 14.8043 12.5001 17.3478 12.5001 20C12.5001 22.6522 13.5536 25.1957 15.429 27.0711C17.3044 28.9464 19.8479 30 22.5001 30C25.1522 30 27.6958 28.9464 29.5711 27.0711C31.4465 25.1957 32.5001 22.6522 32.5001 20C32.5001 17.3478 31.4465 14.8043 29.5711 12.9289C27.6958 11.0536 25.1522 10 22.5001 10Z" fill="#27529C"/>
</svg>
