<svg width="25" height="25" viewBox="0 0 25 25" fill="none" xmlns="http://www.w3.org/2000/svg">
<path fill-rule="evenodd" clip-rule="evenodd" d="M24.0747 4.68187C24.4058 3.06752 22.8202 1.72597 21.283 2.3199L2.44008 9.60011C0.723434 10.2634 0.646944 12.6639 2.31787 13.435L6.42133 15.329L8.37341 22.1611C8.4748 22.516 8.75642 22.7908 9.1137 22.8834C9.47098 22.9759 9.85058 22.8726 10.1116 22.6116L13.1185 19.6046L17.3307 22.7638C18.5534 23.6807 20.3145 23.0128 20.6215 21.5156L24.0747 4.68187ZM3.19092 11.5434L22.0338 4.26323L18.5807 21.0971L13.6458 17.3958C13.2311 17.0848 12.6508 17.126 12.2842 17.4926L10.9963 18.7805L11.3833 16.6523L18.9657 9.06993C19.3348 8.70092 19.3737 8.11579 19.057 7.70107C18.7402 7.28634 18.1655 7.17002 17.7124 7.42894L7.24085 13.4126L3.19092 11.5434ZM8.51763 15.0825L9.14928 17.2933L9.39179 15.9595C9.4297 15.751 9.53027 15.5591 9.68009 15.4093L11.9925 13.097L8.51763 15.0825Z" fill="white"/>
</svg>
