<svg width="25" height="25" viewBox="0 0 25 25" fill="none" xmlns="http://www.w3.org/2000/svg">
<path fill-rule="evenodd" clip-rule="evenodd" d="M20.8333 1.04175C22.5592 1.04175 23.9583 2.44086 23.9583 4.16675V20.8334C23.9583 22.5594 22.5592 23.9584 20.8333 23.9584H4.16663C2.44074 23.9584 1.04163 22.5594 1.04163 20.8334V4.16675C1.04163 2.44086 2.44074 1.04175 4.16663 1.04175H20.8333ZM20.8333 3.12508C21.4086 3.12508 21.875 3.59146 21.875 4.16675V20.8334C21.875 21.4087 21.4086 21.8751 20.8333 21.8751H15.625V14.5833H17.7877C18.236 14.5833 18.634 14.2964 18.7759 13.871L19.2374 12.4866C19.406 11.9807 19.0294 11.4583 18.4962 11.4583H15.625V9.375C15.625 8.85416 16.1458 8.33333 16.6666 8.33333H18.75C19.3253 8.33333 19.7916 7.86696 19.7916 7.29166V6.57709C19.7916 6.24061 19.5767 5.93894 19.2513 5.85307C17.8859 5.49274 16.6666 5.49274 16.6666 5.49274C14.0625 5.49274 12.5 7.29166 12.5 8.85416V11.4583H10.4166C9.84133 11.4583 9.37496 11.9247 9.37496 12.5V13.5416C9.37496 14.117 9.84132 14.5833 10.4166 14.5833H12.5V21.8751H4.16663C3.59133 21.8751 3.12496 21.4087 3.12496 20.8334V4.16675C3.12496 3.59146 3.59133 3.12508 4.16663 3.12508H20.8333Z" fill="white"/>
</svg>
