<svg width="25" height="25" viewBox="0 0 25 25" fill="none" xmlns="http://www.w3.org/2000/svg">
<g clip-path="url(#clip0_49_14)">
<path d="M13.5417 4.16675C12.9664 4.16675 12.5 4.63312 12.5 5.20841C12.5 5.78371 12.9664 6.25008 13.5417 6.25008C14.8675 6.25008 15.8914 6.68747 16.5811 7.37728C17.2709 8.06709 17.7083 9.09097 17.7083 10.4167C17.7083 10.9921 18.1747 11.4584 18.75 11.4584C19.3253 11.4584 19.7917 10.9921 19.7917 10.4167C19.7917 8.61753 19.1874 7.03724 18.0543 5.90413C16.9211 4.77103 15.3408 4.16675 13.5417 4.16675Z" fill="white"/>
<path d="M5.22296 8.33972C5.34199 7.39833 6.56543 6.1189 7.53637 6.26086L7.53482 6.25931C8.34641 6.41353 9.01272 7.63505 9.45184 8.44006C9.52398 8.57231 9.58999 8.69332 9.64951 8.79651C9.94838 9.3271 9.75431 9.86469 9.47561 10.0915C9.44338 10.1175 9.40959 10.1443 9.37483 10.1719C9.00396 10.4664 8.52206 10.8489 8.63486 11.2327C8.85421 11.9792 11.4584 14.5833 12.7392 15.3236C13.1314 15.5503 13.4363 15.1101 13.6974 14.7331C13.7591 14.6441 13.8184 14.5585 13.8758 14.4861C14.0939 14.1949 14.6319 14.0208 15.1613 14.3083C15.9519 14.7688 16.6967 15.3039 17.3855 15.9062C17.7294 16.1938 17.8101 16.6186 17.5718 17.0677C17.152 17.8586 15.9379 18.9017 15.0565 18.6897C13.5171 18.3196 7.29171 15.9062 5.29205 8.91459C5.18734 8.60663 5.20468 8.477 5.21971 8.36449L5.22296 8.33972Z" fill="white"/>
<path d="M13.5417 7.29175C12.9664 7.29175 12.5 7.75812 12.5 8.33341C12.5 8.90871 12.9664 9.37508 13.5417 9.37508C13.7237 9.37508 13.9929 9.47659 14.2374 9.72103C14.4818 9.96546 14.5833 10.2347 14.5833 10.4167C14.5833 10.9921 15.0497 11.4584 15.625 11.4584C16.2003 11.4584 16.6667 10.9921 16.6667 10.4167C16.6667 9.55713 16.2474 8.78471 15.7105 8.24788C15.1737 7.71107 14.4013 7.29175 13.5417 7.29175Z" fill="white"/>
<path fill-rule="evenodd" clip-rule="evenodd" d="M7.83062 24.8243C7.86026 24.8406 7.89068 24.8555 7.92177 24.8688C8.48708 25.112 9.18492 24.5692 10.5806 23.4836L11.9791 22.3959C14.7796 22.4886 17.2021 22.1211 19.075 21.4658C21.1695 20.7329 22.8162 19.0861 23.5491 16.9917C24.5591 14.1053 24.5591 8.81137 23.5491 5.92503C22.8162 3.83053 21.1695 2.18374 19.075 1.45083C15.7399 0.28385 9.19788 0.30562 5.92504 1.45083C3.83053 2.18374 2.18375 3.83053 1.45084 5.92503C0.440866 8.81137 0.440866 14.1053 1.45084 16.9917C2.18375 19.0861 3.83053 20.7329 5.92504 21.4658C6.33593 21.6096 6.79551 21.7673 7.29164 21.8751C7.29164 23.6432 7.29164 24.5273 7.83062 24.8243ZM9.37498 21.7821V20.6156C9.37498 20.3706 9.20414 20.1588 8.96453 20.1076C8.17088 19.9379 7.38202 19.7684 6.61312 19.4994C5.11704 18.9759 3.94077 17.7996 3.41727 16.3035C3.01946 15.1667 2.77669 13.3806 2.77669 11.4583C2.77669 9.53606 3.01946 7.74996 3.41727 6.61311C3.94077 5.11704 5.11704 3.94076 6.61312 3.41726C7.93357 2.95522 10.122 2.6697 12.4789 2.66709C14.8356 2.66449 17.0376 2.94512 18.3868 3.41726C19.8829 3.94076 21.0592 5.11704 21.5827 6.61311C21.9805 7.74996 22.2233 9.53606 22.2233 11.4583C22.2233 13.3806 21.9805 15.1667 21.5827 16.3035C21.0592 17.7996 19.8829 18.9759 18.3868 19.4994C16.1663 20.2763 13.8114 20.3636 11.4832 20.2947C11.3615 20.2911 11.2423 20.3298 11.1462 20.4045L9.37498 21.7821Z" fill="white"/>
</g>
<defs>
<clipPath id="clip0_49_14">
<rect width="25" height="25" fill="white"/>
</clipPath>
</defs>
</svg>
