<svg width="25" height="25" viewBox="0 0 25 25" fill="none" xmlns="http://www.w3.org/2000/svg">
<path fill-rule="evenodd" clip-rule="evenodd" d="M20.6071 4.08156C20.9701 3.99552 21.2233 3.91092 21.4307 3.82208C21.7213 3.69756 21.9622 3.54839 22.343 3.29717C22.6628 3.08604 23.0729 3.06765 23.4104 3.2493C23.7479 3.43094 23.9584 3.78328 23.9584 4.16657C23.9584 5.29254 23.8181 6.21539 23.4933 7.02755C23.2199 7.71068 22.836 8.26554 22.3767 8.77055C22.1827 12.2738 21.1687 15.0249 19.6184 17.1092C18.0115 19.2695 15.8736 20.653 13.6199 21.4278C11.3729 22.2002 8.99861 22.3728 6.8716 22.1112C4.75854 21.8514 2.80529 21.1518 1.44384 20.093C1.07101 19.803 0.939948 19.2984 1.12453 18.8636C1.30911 18.4288 1.76312 18.1727 2.23071 18.2395C3.57026 18.4309 4.85973 18.1263 5.92004 17.6909C5.71131 17.5773 5.51451 17.4544 5.33158 17.3278C4.3654 16.6589 3.58587 15.7509 3.23501 15.0491C3.08981 14.7588 3.08831 14.4172 3.23096 14.1257C3.30454 13.9752 3.41214 13.8469 3.54279 13.7491C2.13209 12.5848 1.56253 10.9745 1.56253 9.89574C1.56253 9.57497 1.71032 9.27208 1.96315 9.07468C2.06947 8.99168 2.18936 8.93122 2.31575 8.8948C2.21018 8.58569 2.12827 8.27339 2.06583 7.97105C1.78899 6.63057 1.81356 5.11759 2.11447 3.91393C2.21743 3.50204 2.56008 3.19386 2.98055 3.13497C3.40101 3.07608 3.81514 3.27827 4.02731 3.64603C5.14972 5.59153 7.22 6.7807 9.14677 7.48513C10.0526 7.81632 10.8916 8.02736 11.5205 8.15711C11.6562 6.88566 12.0112 5.83713 12.5561 5.00433C13.2749 3.90559 14.2775 3.25552 15.3542 2.96565C17.2112 2.46576 19.2717 3.03528 20.6071 4.08156ZM11.1963 10.2172C10.4826 10.0739 9.50182 9.83313 8.43141 9.4418C7.01764 8.92493 5.37596 8.11899 4.00079 6.87058C4.0254 7.10031 4.06034 7.32809 4.10611 7.54969C4.33658 8.66566 4.76483 9.29066 5.15338 9.48493C5.6286 9.72255 5.84883 10.2797 5.66449 10.7781C5.4149 11.4528 4.75847 11.5081 4.16203 11.359C4.64174 12.0782 5.50397 12.7953 6.94211 13.0349C7.43813 13.1177 7.80429 13.5429 7.81239 14.0457C7.82051 14.5485 7.46826 14.9853 6.97515 15.0839L6.06842 15.2653C6.20713 15.3858 6.35733 15.504 6.51743 15.6148C7.24339 16.1174 7.97229 16.3342 8.60156 16.1769C9.07286 16.0591 9.56303 16.2827 9.78299 16.7159C10.0029 17.149 9.89427 17.6767 9.52106 17.9877C8.85031 18.546 8.06697 18.994 7.28188 19.3658C6.91332 19.5404 6.50143 19.7127 6.0541 19.8643C6.39814 19.9378 6.75614 19.998 7.12585 20.0435C8.9702 20.2703 11.0231 20.1173 12.9426 19.4575C14.8557 18.7999 16.6239 17.6443 17.9468 15.8659C19.2677 14.0898 20.1896 11.632 20.3133 8.29475C20.323 8.032 20.4317 7.78264 20.6176 7.59673C21.086 7.12834 21.4731 6.59148 21.6635 5.95244C21.3302 6.05633 20.955 6.14625 20.5082 6.23168C20.1691 6.2965 19.82 6.18917 19.576 5.94512C18.7796 5.14874 17.2046 4.62503 15.8958 4.97736C15.2798 5.14318 14.7199 5.50216 14.2994 6.1449C13.8701 6.80113 13.5417 7.82343 13.5417 9.37494C13.5417 9.66971 13.4168 9.95067 13.1981 10.1482C12.6793 10.6164 11.8063 10.3397 11.1963 10.2172Z" fill="white"/>
</svg>
