<svg width="30" height="30" viewBox="0 0 30 30" fill="none" xmlns="http://www.w3.org/2000/svg">
<path fill-rule="evenodd" clip-rule="evenodd" d="M4.37503 10C4.37528 8.81489 4.68187 7.64998 5.26505 6.61829C5.84824 5.5866 6.68821 4.72319 7.70345 4.11183C8.7187 3.50048 9.87474 3.16194 11.0594 3.12908C12.244 3.09622 13.4171 3.37014 14.4646 3.92428C15.5122 4.47841 16.3988 5.29393 17.0382 6.2917C17.6777 7.28947 18.0484 8.4356 18.1144 9.61887C18.1803 10.8021 17.9393 11.9824 17.4146 13.045C16.89 14.1077 16.0995 15.0166 15.12 15.6838C17.2294 16.4574 19.059 17.8446 20.3733 19.6669C21.6877 21.4891 22.4266 23.663 22.495 25.9088C22.4987 26.0319 22.4781 26.1545 22.4344 26.2697C22.3907 26.3848 22.3248 26.4902 22.2403 26.5799C22.0698 26.761 21.8343 26.8669 21.5857 26.8744C21.337 26.8818 21.0956 26.7902 20.9145 26.6197C20.7334 26.4491 20.6275 26.2136 20.62 25.965C20.5456 23.5293 19.5257 21.2183 17.7765 19.5218C16.0273 17.8252 13.6862 16.8764 11.2494 16.8764C8.81259 16.8764 6.47152 17.8252 4.72232 19.5218C2.97311 21.2183 1.95322 23.5293 1.87878 25.965C1.86627 26.2098 1.75838 26.4399 1.57823 26.6062C1.39808 26.7724 1.16 26.8614 0.914998 26.8542C0.669992 26.847 0.437547 26.7442 0.267458 26.5677C0.09737 26.3912 0.0031675 26.1551 0.00503204 25.91C0.0732212 23.664 0.812041 21.4899 2.12639 19.6674C3.44074 17.8449 5.27046 16.4575 7.38003 15.6838C6.45341 15.0535 5.69513 14.206 5.17133 13.2152C4.64754 12.2245 4.37415 11.1207 4.37503 10ZM11.25 5C9.92395 5 8.65218 5.52679 7.7145 6.46447C6.77682 7.40215 6.25003 8.67392 6.25003 10C6.25003 11.3261 6.77682 12.5979 7.7145 13.5355C8.65218 14.4732 9.92395 15 11.25 15C12.5761 15 13.8479 14.4732 14.7856 13.5355C15.7232 12.5979 16.25 11.3261 16.25 10C16.25 8.67392 15.7232 7.40215 14.7856 6.46447C13.8479 5.52679 12.5761 5 11.25 5Z" fill="#27529C"/>
<path d="M21.6125 10C21.4275 10 21.2475 10.0125 21.07 10.0375C20.9461 10.0597 20.819 10.0567 20.6962 10.0287C20.5735 10.0007 20.4576 9.94824 20.3556 9.87448C20.2536 9.80073 20.1674 9.70719 20.1023 9.59943C20.0372 9.49166 19.9945 9.37189 19.9767 9.24726C19.9589 9.12263 19.9664 8.99569 19.9987 8.87401C20.031 8.75233 20.0875 8.63841 20.1648 8.53904C20.2421 8.43966 20.3387 8.35688 20.4486 8.29563C20.5586 8.23437 20.6798 8.1959 20.805 8.1825C22.0482 8.00276 23.3159 8.2415 24.4086 8.86116C25.5013 9.48081 26.3569 10.4462 26.8408 11.6054C27.3247 12.7646 27.4094 14.0518 27.0816 15.2644C26.7538 16.477 26.0321 17.5462 25.03 18.3038C26.503 18.9633 27.7537 20.035 28.6311 21.3895C29.5086 22.7441 29.9753 24.3236 29.975 25.9375C29.975 26.1861 29.8763 26.4246 29.7004 26.6004C29.5246 26.7762 29.2862 26.875 29.0375 26.875C28.7889 26.875 28.5504 26.7762 28.3746 26.6004C28.1988 26.4246 28.1 26.1861 28.1 25.9375C28.0999 24.5427 27.6505 23.185 26.8183 22.0656C25.9862 20.9462 24.8156 20.1246 23.48 19.7225L22.8125 19.5225V17.4275L23.325 17.1663C24.0847 16.7814 24.6926 16.1518 25.0504 15.3791C25.4083 14.6063 25.4952 13.7355 25.2973 12.9072C25.0994 12.0789 24.6281 11.3415 23.9595 10.814C23.291 10.2866 22.4641 9.99977 21.6125 10Z" fill="#27529C"/>
</svg>
