<svg width="33" height="33" viewBox="0 0 33 33" fill="none" xmlns="http://www.w3.org/2000/svg">
<path d="M5.5 11C5.5 7.11091 5.5 5.16637 6.70819 3.95818C7.91637 2.75 9.86091 2.75 13.75 2.75H19.25C23.139 2.75 25.0836 2.75 26.2918 3.95818C27.5 5.16637 27.5 7.11091 27.5 11V22C27.5 25.889 27.5 27.8336 26.2918 29.0418C25.0836 30.25 23.139 30.25 19.25 30.25H13.75C9.86091 30.25 7.91637 30.25 6.70819 29.0418C5.5 27.8336 5.5 25.889 5.5 22V11Z" stroke="#27529C" stroke-width="2"/>
<path d="M27.3595 22H10.8594C9.58074 22 8.94138 22 8.41681 22.1405C6.9933 22.5219 5.88142 23.6339 5.5 25.0573" stroke="#27529C" stroke-width="2"/>
<path d="M11 9.625H22" stroke="#27529C" stroke-width="2" stroke-linecap="round"/>
<path d="M11 14.4375H17.875" stroke="#27529C" stroke-width="2" stroke-linecap="round"/>
<path d="M17.875 22V26.855C17.875 27.2339 17.875 27.4234 17.7445 27.5C17.6142 27.5766 17.4358 27.4919 17.079 27.3224L15.371 26.5111C15.2503 26.4538 15.1899 26.425 15.125 26.425C15.0601 26.425 14.9997 26.4538 14.879 26.5111L13.171 27.3224C12.8142 27.4919 12.6359 27.5766 12.5054 27.5C12.375 27.4234 12.375 27.2339 12.375 26.855V22.6188" stroke="#27529C" stroke-width="2" stroke-linecap="round"/>
</svg>
