<svg width="33" height="28" viewBox="0 0 33 28" fill="none" xmlns="http://www.w3.org/2000/svg">
<path d="M4.10001 1H19.6C20.4222 1 21.2107 1.30107 21.7921 1.83698C22.3734 2.3729 22.7 3.09975 22.7 3.85764V12.4306C22.7 13.1885 22.3734 13.9153 21.7921 14.4512C21.2107 14.9871 20.4222 15.2882 19.6 15.2882H14.95L10.3 19.5747L5.65001 15.2882H4.10001C3.27783 15.2882 2.48933 14.9871 1.90797 14.4512C1.32661 13.9153 1 13.1885 1 12.4306V3.85764C1 3.09975 1.32661 2.3729 1.90797 1.83698C2.48933 1.30107 3.27783 1 4.10001 1Z" stroke="#27529C" stroke-width="2" stroke-linecap="round" stroke-linejoin="round"/>
<path d="M22.7 8.1441H28.9C29.7221 8.1441 30.5106 8.44518 31.092 8.98109C31.6734 9.517 32 10.2439 32 11.0017V19.5747C32 20.3326 31.6734 21.0594 31.092 21.5953C30.5106 22.1312 29.7221 22.4323 28.9 22.4323H25.8L22.7 26.7188L18.0499 22.4323H13.3999C12.5778 22.4323 11.7893 22.1312 11.2079 21.5953C10.6265 21.0594 10.2999 20.3326 10.2999 19.5747" stroke="#27529C" stroke-width="2" stroke-linecap="round" stroke-linejoin="round"/>
</svg>
